<?xml version="1.0" encoding="UTF-8"?>
<svg version="1.1" xmlns="http://www.w3.org/2000/svg" width="111" height="179">
<path d="M0 0 C0.99 0 1.98 0 3 0 C7 4.34285714 7 4.34285714 7 7 C10.465 6.505 10.465 6.505 14 6 C14.061875 6.556875 14.12375 7.11375 14.1875 7.6875 C15.33148209 10.94344904 17.54876936 12.607132 20 15 C20.63228516 16.30710937 20.63228516 16.30710937 21.27734375 17.640625 C22.81055377 20.31788049 22.81055377 20.31788049 25.91796875 20.48828125 C26.99691406 20.43027344 28.07585937 20.37226562 29.1875 20.3125 C30.81751953 20.24482422 30.81751953 20.24482422 32.48046875 20.17578125 C33.31191406 20.11777344 34.14335938 20.05976562 35 20 C34.7834375 19.38511719 34.566875 18.77023438 34.34375 18.13671875 C34.0653125 17.32847656 33.786875 16.52023438 33.5 15.6875 C33.2215625 14.88699219 32.943125 14.08648437 32.65625 13.26171875 C32 11 32 11 32 8 C35.81477116 8.54496731 37.52338148 10.11061173 40 13 C40.309375 13.639375 40.61875 14.27875 40.9375 14.9375 C41.99642841 17.25040818 41.99642841 17.25040818 44.5 19.5 C47.97403922 22.97403922 49.30797985 25.71248443 49.5 30.625 C49.3166397 37.95941196 45.80336014 43.3151559 40.59765625 48.30078125 C39.01279876 49.67031845 37.40107467 51.0097116 35.7578125 52.30859375 C35.17773438 52.86675781 34.59765625 53.42492187 34 54 C34 54.99 34 55.98 34 57 C33.01 57 32.02 57 31 57 C31.99 59.475 31.99 59.475 33 62 C31.515 62.495 31.515 62.495 30 63 C29.2575 63.969375 28.515 64.93875 27.75 65.9375 C24.93991054 69.52100857 22.39454129 70.13832524 18 71 C18.82628906 71.50789063 19.65257813 72.01578125 20.50390625 72.5390625 C31.9644914 80.21082997 42.81662576 91.67392882 47 105 C47.36780824 109.22720458 47.21717674 110.62169214 45.0625 114.375 C43.2992091 116.30549952 42.31340138 116.93353729 39.734375 117.48046875 C37.33767086 117.56164744 35.32789452 117.5899772 33 117 C32.34 116.01 31.68 115.02 31 114 C31.99 112.515 31.99 112.515 33 111 C33.99 111 34.98 111 36 111 C34.15811388 108.94729537 34.15811388 108.94729537 32 108 C32.144375 107.154375 32.28875 106.30875 32.4375 105.4375 C31.79841864 100.41614648 28.80451179 98.12451987 25 95 C24.34 94.67 23.68 94.34 23 94 C23.13277344 94.69222656 23.26554687 95.38445312 23.40234375 96.09765625 C24.72019558 103.39874778 25.38337057 110.54972288 25.75390625 117.9453125 C25.80150633 120.91463317 25.80150633 120.91463317 27 123 C27.7164578 130.16457803 26.40348014 136.27597818 24 143 C24.61488281 143.03738281 25.22976562 143.07476562 25.86328125 143.11328125 C27.07564453 143.21189453 27.07564453 143.21189453 28.3125 143.3125 C29.11300781 143.37050781 29.91351563 143.42851562 30.73828125 143.48828125 C33.41612662 144.09414955 34.3778691 144.80779115 36 147 C36.25 150.125 36.25 150.125 36 153 C34.06087113 154.93912887 30.56480731 154.17477774 28 154.1875 C13.81242714 154.15551568 13.81242714 154.15551568 9.27954102 150.68139648 C7.67839679 148.57739337 7.6729528 147.5270275 7.77734375 144.91015625 C7.79603516 144.12576172 7.81472656 143.34136719 7.83398438 142.53320312 C7.86814453 141.71787109 7.90230469 140.90253906 7.9375 140.0625 C7.99771364 138.44954326 8.04880986 136.83621485 8.08984375 135.22265625 C8.11941162 134.50859619 8.14897949 133.79453613 8.17944336 133.05883789 C7.96992536 130.65493949 7.19075656 129.07892705 6 127 C3.32544821 127.83599024 1.30315472 128.47866858 -1 130 C-2.42560482 133.25241964 -2.42560482 133.25241964 -2.8125 137.0625 C-2.97202148 138.06253052 -2.97202148 138.06253052 -3.13476562 139.08276367 C-3.44781474 141.05141574 -3.72447665 143.02574632 -4 145 C-4.31615595 146.94037697 -4.64657601 148.8785639 -5 150.8125 C-5.12375 151.58207031 -5.2475 152.35164062 -5.375 153.14453125 C-6 155 -6 155 -9 157 C-11.73062237 157.19483979 -14.33524164 157.27893643 -17.0625 157.25 C-17.79533203 157.25773438 -18.52816406 157.26546875 -19.28320312 157.2734375 C-24.74663018 157.25336982 -24.74663018 157.25336982 -27 155 C-26.875 151.5 -26.875 151.5 -26 148 C-23.9453125 146.78125 -23.9453125 146.78125 -22 146 C-22.00785522 145.13048706 -22.00785522 145.13048706 -22.01586914 144.2434082 C-22.03674334 141.5997833 -22.04969327 138.95617579 -22.0625 136.3125 C-22.07087891 135.40048828 -22.07925781 134.48847656 -22.08789062 133.54882812 C-22.09272461 132.21948242 -22.09272461 132.21948242 -22.09765625 130.86328125 C-22.10289307 130.05157471 -22.10812988 129.23986816 -22.11352539 128.40356445 C-21.99280807 125.8477321 -21.52843938 123.50033396 -21 121 C-20.82762694 118.60592977 -20.68422206 116.20967927 -20.5625 113.8125 C-20.19216407 107.71987663 -19.43693111 101.92908467 -18 96 C-20.82572058 97.03293147 -21.82978305 97.67952982 -23.265625 100.3828125 C-23.59046875 101.28773437 -23.9153125 102.19265625 -24.25 103.125 C-24.75273438 104.49011719 -24.75273438 104.49011719 -25.265625 105.8828125 C-25.50796875 106.58148438 -25.7503125 107.28015625 -26 108 C-25.34 108 -24.68 108 -24 108 C-23.375 110.3125 -23.375 110.3125 -23 113 C-23.66 113.99 -24.32 114.98 -25 116 C-24.6878236 118.64632287 -24.6878236 118.64632287 -24 121 C-33.7003861 121.76447876 -33.7003861 121.76447876 -38.1875 119.125 C-41.51380355 113.38999387 -40.54383413 107.46018383 -39.0625 101.1875 C-35.94324387 91.85915856 -29.353267 83.31583663 -21.53125 77.46484375 C-19.70557466 75.71834311 -19.38118286 74.46180595 -19 72 C-20.3921875 71.7215625 -20.3921875 71.7215625 -21.8125 71.4375 C-26.09408226 69.50659035 -26.30632435 67.23418913 -28 63 C-30.06890419 61.95710245 -30.06890419 61.95710245 -32 62 C-32.495 59.525 -32.495 59.525 -33 57 C-32.34 57 -31.68 57 -31 57 C-33.17781444 54.65466138 -35.09902592 52.94187609 -37.875 51.3125 C-43.30759842 47.29237717 -46.87467104 41.39584976 -49 35 C-49.1953125 32.54296875 -49.1953125 32.54296875 -49.125 30.1875 C-49.10695312 29.39730469 -49.08890625 28.60710938 -49.0703125 27.79296875 C-49.04710937 27.20128906 -49.02390625 26.60960938 -49 26 C-48.34 26 -47.68 26 -47 26 C-46.896875 25.236875 -46.79375 24.47375 -46.6875 23.6875 C-45.95288806 20.81583516 -45.3283935 19.76957906 -43 18 C-42.34 18 -41.68 18 -41 18 C-40.67 19.32 -40.34 20.64 -40 22 C-35.97281625 18.30841489 -33.61995764 14.78819844 -31 10 C-29 8 -29 8 -26.375 7.875 C-25.59125 7.91625 -24.8075 7.9575 -24 8 C-24.50603992 10.16874252 -24.99983813 11.99967627 -26 14 C-26.039992 15.99960012 -26.04346799 18.00047242 -26 20 C-24.35 20.33 -22.7 20.66 -21 21 C-20.45472656 20.23816406 -20.45472656 20.23816406 -19.8984375 19.4609375 C-17.32790557 15.94128608 -14.77088382 12.65104063 -11.625 9.625 C-10.75875 8.75875 -9.8925 7.8925 -9 7 C-9 6.34 -9 5.68 -9 5 C-8.01 5 -7.02 5 -6 5 C-6 4.34 -6 3.68 -6 3 C-4.02 3 -2.04 3 0 3 C0 2.01 0 1.02 0 0 Z " fill="#40373E" transform="translate(51,13)"/>
<path d="M0 0 C0.99 0.33 1.98 0.66 3 1 C3.33 4.63 3.66 8.26 4 12 C5.65 12.66 7.3 13.32 9 14 C9.66 14.33 10.32 14.66 11 15 C11 14.01 11 13.02 11 12 C11.99 12.33 12.98 12.66 14 13 C14 15.64 14 18.28 14 21 C15.32 20.67 16.64 20.34 18 20 C18.495 21.485 18.495 21.485 19 23 C19.70125 22.67 20.4025 22.34 21.125 22 C24.41025967 20.85730098 26.55095171 20.48631196 30 21 C32.4375 23.1875 32.4375 23.1875 34 26 C33.75 28.8125 33.75 28.8125 33 31 C33.66 30.67 34.32 30.34 35 30 C36.99960012 29.960008 39.00047242 29.95653201 41 30 C41.99 32.64 42.98 35.28 44 38 C42.68 37.34 41.36 36.68 40 36 C40 34.68 40 33.36 40 32 C37.54368999 32.49547543 37.54368999 32.49547543 35 34 C33.65223022 36.27962623 32.88635784 38.48087772 32 41 C32.99 41 33.98 41 35 41 C35.495 42.98 35.495 42.98 36 45 C33.69 45 31.38 45 29 45 C29.33 45.99 29.66 46.98 30 48 C34.62 48 39.24 48 44 48 C44 48.66 44 49.32 44 50 C45.32 50.33 46.64 50.66 48 51 C46.28201227 53.8384145 44.92981544 55.68152621 41.73046875 56.77734375 C39.49179691 57.26033279 37.26678014 57.67548233 35 58 C36.98 58.66 38.96 59.32 41 60 C41 60.33 41 60.66 41 61 C38.69 61 36.38 61 34 61 C34 62.32 34 63.64 34 65 C33.01 65 32.02 65 31 65 C31 65.66 31 66.32 31 67 C25.72 65.68 20.44 64.36 15 63 C15 62.01 15 61.02 15 60 C14.38511719 59.93683594 13.77023438 59.87367187 13.13671875 59.80859375 C10.58484842 59.42194673 8.38843726 58.98949543 6 58 C4.1875 54.4375 4.1875 54.4375 3 51 C0.93109581 49.95710245 0.93109581 49.95710245 -1 50 C-1.495 47.525 -1.495 47.525 -2 45 C-1.34 45 -0.68 45 0 45 C-2.17781444 42.65466138 -4.09902592 40.94187609 -6.875 39.3125 C-12.30759842 35.29237717 -15.87467104 29.39584976 -18 23 C-18.1953125 20.54296875 -18.1953125 20.54296875 -18.125 18.1875 C-18.10695313 17.39730469 -18.08890625 16.60710938 -18.0703125 15.79296875 C-18.03550781 14.90544922 -18.03550781 14.90544922 -18 14 C-17.34 14 -16.68 14 -16 14 C-15.896875 13.236875 -15.79375 12.47375 -15.6875 11.6875 C-14.95288806 8.81583516 -14.3283935 7.76957906 -12 6 C-11.34 6 -10.68 6 -10 6 C-9.67 7.32 -9.34 8.64 -9 10 C-5.98943576 7.14788651 -3.74400999 4.7563292 -2 1 C-1.34 0.67 -0.68 0.34 0 0 Z " fill="#5F3A32" transform="translate(20,25)"/>
<path d="M0 0 C0.66 0 1.32 0 2 0 C2 0.99 2 1.98 2 3 C2.87011719 3.05607422 2.87011719 3.05607422 3.7578125 3.11328125 C8.78424856 3.53629815 12.64706809 4.23960415 17 7 C17.66 7.99 18.32 8.98 19 10 C22.54171978 10.16669318 22.54171978 10.16669318 26 10 C27.89885096 11.89885096 27.12367506 14.57247903 27.1328125 17.08984375 C27 19 27 19 26 21 C24.68 21 23.36 21 22 21 C22 22.65 22 24.3 22 26 C24.31 26 26.62 26 29 26 C29 26.33 29 26.66 29 27 C27.02 27 25.04 27 23 27 C22.67 34.26 22.34 41.52 22 49 C9.77777778 49 9.77777778 49 3.97265625 46.75390625 C2.00160049 46.00061167 0.05430718 45.47336385 -2 45 C-2.2494783 37.70968976 -1.72330907 31.09326321 0 24 C-2.82572058 25.03293147 -3.82978305 25.67952982 -5.265625 28.3828125 C-5.59046875 29.28773437 -5.9153125 30.19265625 -6.25 31.125 C-6.58515625 32.03507812 -6.9203125 32.94515625 -7.265625 33.8828125 C-7.50796875 34.58148438 -7.7503125 35.28015625 -8 36 C-7.34 36 -6.68 36 -6 36 C-5.375 38.3125 -5.375 38.3125 -5 41 C-5.66 41.99 -6.32 42.98 -7 44 C-6.6878236 46.64632287 -6.6878236 46.64632287 -6 49 C-15.7003861 49.76447876 -15.7003861 49.76447876 -20.1875 47.125 C-23.51380355 41.38999387 -22.54383413 35.46018383 -21.0625 29.1875 C-17.95369236 19.89040546 -11.3722902 11.36233011 -3.62890625 5.46484375 C-1.78964027 3.81082758 -0.96637314 2.25810808 0 0 Z " fill="#C2C0C3" transform="translate(33,85)"/>
<path d="M0 0 C0.66 0 1.32 0 2 0 C3.26582219 3.86723631 3.1118765 7.73151262 3.0625 11.75 C3.05798828 12.44738281 3.05347656 13.14476563 3.04882812 13.86328125 C3.0371002 15.57555803 3.01916653 17.28779033 3 19 C3.92039063 18.67257813 4.84078125 18.34515625 5.7890625 18.0078125 C9.05780017 16.98185834 11.60001253 16.83809583 15 17 C18.75997913 25.92995043 17.15792127 34.1653393 14 43 C14.61488281 43.03738281 15.22976562 43.07476562 15.86328125 43.11328125 C16.67152344 43.17902344 17.47976562 43.24476563 18.3125 43.3125 C19.51326172 43.39951172 19.51326172 43.39951172 20.73828125 43.48828125 C23.41612662 44.09414955 24.3778691 44.80779115 26 47 C26.25 50.125 26.25 50.125 26 53 C24.06087113 54.93912887 20.56480731 54.17477774 18 54.1875 C3.81242714 54.15551568 3.81242714 54.15551568 -0.72045898 50.68139648 C-2.32160321 48.57739337 -2.3270472 47.5270275 -2.22265625 44.91015625 C-2.20396484 44.12576172 -2.18527344 43.34136719 -2.16601562 42.53320312 C-2.13185547 41.71787109 -2.09769531 40.90253906 -2.0625 40.0625 C-2.00228636 38.44954326 -1.95119014 36.83621485 -1.91015625 35.22265625 C-1.88058838 34.50859619 -1.85102051 33.79453613 -1.82055664 33.05883789 C-2.03007464 30.65493949 -2.80924344 29.07892705 -4 27 C-6.67455179 27.83599024 -8.69684528 28.47866858 -11 30 C-12.42560482 33.25241964 -12.42560482 33.25241964 -12.8125 37.0625 C-12.91884766 37.72918701 -13.02519531 38.39587402 -13.13476562 39.08276367 C-13.44781474 41.05141574 -13.72447665 43.02574632 -14 45 C-14.31615595 46.94037697 -14.64657601 48.8785639 -15 50.8125 C-15.12375 51.58207031 -15.2475 52.35164063 -15.375 53.14453125 C-16 55 -16 55 -19 57 C-21.73062237 57.19483979 -24.33524164 57.27893643 -27.0625 57.25 C-27.79533203 57.25773437 -28.52816406 57.26546875 -29.28320312 57.2734375 C-34.74663018 57.25336982 -34.74663018 57.25336982 -37 55 C-36.875 51.5 -36.875 51.5 -36 48 C-33.9453125 46.78125 -33.9453125 46.78125 -32 46 C-32.01047363 45.44127197 -32.02094727 44.88254395 -32.03173828 44.30688477 C-32.07383379 41.7254707 -32.09949343 39.14412924 -32.125 36.5625 C-32.14175781 35.68400391 -32.15851562 34.80550781 -32.17578125 33.90039062 C-32.21967784 27.95240262 -31.48881322 22.7618244 -30 17 C-26.45417374 17 -25.0606205 17.21743984 -21.9375 18.4375 C-16.69489124 20.28988843 -11.52298802 20.70062308 -6 21 C-6 18.03 -6 15.06 -6 12 C-3.69 12 -1.38 12 1 12 C0.505 6.06 0.505 6.06 0 0 Z " fill="#494A56" transform="translate(61,113)"/>
<path d="M0 0 C0.99 0 1.98 0 3 0 C7 4.34285714 7 4.34285714 7 7 C10.465 6.505 10.465 6.505 14 6 C14.061875 6.556875 14.12375 7.11375 14.1875 7.6875 C15.33148209 10.94344904 17.54876936 12.607132 20 15 C20.37125 15.928125 20.7425 16.85625 21.125 17.8125 C22.81032486 20.27833033 22.81032486 20.27833033 25.62890625 20.3125 C28.4360281 20.3125 31.20156126 20.21380262 34 20 C34 20.99 34 21.98 34 23 C28.70769231 26.07692308 28.70769231 26.07692308 25.125 25.6875 C24.42375 25.460625 23.7225 25.23375 23 25 C23.495 29.455 23.495 29.455 24 34 C22.75283203 33.91298828 22.75283203 33.91298828 21.48046875 33.82421875 C20.39378906 33.77910156 19.30710938 33.73398437 18.1875 33.6875 C17.10855469 33.62949219 16.02960938 33.57148437 14.91796875 33.51171875 C13.47357422 33.75341797 13.47357422 33.75341797 12 34 C10.25905309 36.42393286 10.25905309 36.42393286 9 39 C6.0625 39.625 6.0625 39.625 3 39 C2.4225 38.154375 1.845 37.30875 1.25 36.4375 C-0.71516929 33.73582563 -0.71516929 33.73582563 -3.36328125 33.890625 C-5.93050574 34.17298254 -8.45393377 34.57069668 -11 35 C-11.99 35 -12.98 35 -14 35 C-13.67 34.01 -13.34 33.02 -13 32 C-14.98 32.495 -14.98 32.495 -17 33 C-17.1953125 30.94921875 -17.390625 28.8984375 -17.5859375 26.84765625 C-17.79089844 25.93306641 -17.79089844 25.93306641 -18 25 C-18.66 24.67 -19.32 24.34 -20 24 C-20 24.99 -20 25.98 -20 27 C-24.75 25.125 -24.75 25.125 -27 24 C-27.6328125 21.49609375 -27.6328125 21.49609375 -28.125 18.4375 C-28.37636719 16.91962891 -28.37636719 16.91962891 -28.6328125 15.37109375 C-28.75398438 14.58863281 -28.87515625 13.80617188 -29 13 C-29.99 13 -30.98 13 -32 13 C-30.125 9.125 -30.125 9.125 -29 8 C-27.33382885 7.95936168 -25.66611905 7.957279 -24 8 C-24.50603992 10.16874252 -24.99983813 11.99967627 -26 14 C-26.039992 15.99960012 -26.04346799 18.00047242 -26 20 C-24.35 20.33 -22.7 20.66 -21 21 C-20.63648438 20.49210937 -20.27296875 19.98421875 -19.8984375 19.4609375 C-17.32790557 15.94128608 -14.77088382 12.65104063 -11.625 9.625 C-10.75875 8.75875 -9.8925 7.8925 -9 7 C-9 6.34 -9 5.68 -9 5 C-8.01 5 -7.02 5 -6 5 C-6 4.34 -6 3.68 -6 3 C-4.02 3 -2.04 3 0 3 C0 2.01 0 1.02 0 0 Z " fill="#ECE6E3" transform="translate(51,13)"/>
<path d="M0 0 C6.58104265 1.30567886 10.38646395 5.65852283 14.9375 10.25 C15.73784668 11.05469727 16.53819336 11.85939453 17.36279297 12.68847656 C24.02118752 19.60554256 30.42627151 27.23166679 31.26953125 37.1796875 C30.95685877 40.4514198 29.92559891 42.4300555 27.703125 44.86328125 C24.90561959 46.73042362 22.26759232 46.58657796 18.98828125 46.50390625 C17 46 17 46 15 43 C15.66 42.01 16.32 41.02 17 40 C17.99 40 18.98 40 20 40 C18.15811388 37.94729537 18.15811388 37.94729537 16 37 C16.144375 36.154375 16.28875 35.30875 16.4375 34.4375 C15.79841864 29.41614648 12.80451179 27.12451987 9 24 C8.34 23.67 7.68 23.34 7 23 C7.13277344 23.76183594 7.26554687 24.52367188 7.40234375 25.30859375 C10.44651163 43.10697674 10.44651163 43.10697674 9 46 C6.27734375 46.6328125 6.27734375 46.6328125 2.9375 47.125 C1.28041016 47.37636719 1.28041016 47.37636719 -0.41015625 47.6328125 C-1.26480469 47.75398438 -2.11945313 47.87515625 -3 48 C-5.32269663 19.13219908 -5.32269663 19.13219908 -1.734375 9.12890625 C-0.69184266 6.10667153 -0.3445675 3.17002096 0 0 Z " fill="#EDE9E9" transform="translate(67,84)"/>
<path d="M0 0 C1.32 0 2.64 0 4 0 C4.185625 0.721875 4.37125 1.44375 4.5625 2.1875 C6.54733708 6.0708769 9.00807563 8.22664986 13 10 C15.34147393 10.14008818 17.57517441 10.00314598 19.9140625 9.85546875 C22 10 22 10 25 12.3125 C27 15 27 15 28 18 C27.01 18.33 26.02 18.66 25 19 C23.9171875 20.4540625 23.9171875 20.4540625 22.8125 21.9375 C19.79525013 25.79698833 16.71566956 26.20073397 12 27 C11.87882812 27.556875 11.75765625 28.11375 11.6328125 28.6875 C11.46523437 29.450625 11.29765625 30.21375 11.125 31 C10.94324219 31.82886719 10.76148437 32.65773437 10.57421875 33.51171875 C10.08628172 35.62611254 9.5200447 37.72219254 8.9375 39.8125 C7.76529877 44.33646412 7.53135355 48.90711254 7.24609375 53.55859375 C7 56 7 56 6 57 C5.92773498 58.85287502 5.9161878 60.70833878 5.9375 62.5625 C5.94652344 63.57441406 5.95554687 64.58632812 5.96484375 65.62890625 C5.97644531 66.41136719 5.98804688 67.19382812 6 68 C3.69 68 1.38 68 -1 68 C-0.91621094 67.07316406 -0.83242188 66.14632812 -0.74609375 65.19140625 C-0.64425781 63.99386719 -0.54242188 62.79632813 -0.4375 61.5625 C-0.33308594 60.36753906 -0.22867188 59.17257813 -0.12109375 57.94140625 C-0.08113281 56.97074219 -0.04117188 56.00007813 0 55 C-0.33 54.67 -0.66 54.34 -1 54 C-1.04063832 52.33382885 -1.042721 50.66611905 -1 49 C0.32 49 1.64 49 3 49 C3 45.7 3 42.4 3 39 C0.69 39 -1.62 39 -4 39 C-5.0625 37.125 -5.0625 37.125 -6 35 C-5.67 34.34 -5.34 33.68 -5 33 C-4.01 33 -3.02 33 -2 33 C-2 31.68 -2 30.36 -2 29 C-1.34 28.67 -0.68 28.34 0 28 C-0.66 27.01 -1.32 26.02 -2 25 C-0.96939453 24.85304688 -0.96939453 24.85304688 0.08203125 24.703125 C0.98308594 24.55359375 1.88414063 24.4040625 2.8125 24.25 C3.70582031 24.11078125 4.59914063 23.9715625 5.51953125 23.828125 C8.50572658 22.831159 9.38380344 21.6417565 11 19 C10.01 18.67 9.02 18.34 8 18 C8 17.34 8 16.68 8 16 C6.7625 16.2475 6.7625 16.2475 5.5 16.5 C1.58727683 17.05896045 -2.05183173 17.06807187 -6 17 C-6.33 15.68 -6.66 14.36 -7 13 C-2.25 11.875 -2.25 11.875 0 13 C-0.33 11.68 -0.66 10.36 -1 9 C-1.99 9 -2.98 9 -4 9 C-2.25 2.25 -2.25 2.25 0 0 Z " fill="#624743" transform="translate(56,57)"/>
<path d="M0 0 C0.680625 0.28875 1.36125 0.5775 2.0625 0.875 C5.32893093 2.12597355 8.62846123 3.07447955 12 4 C11.67 4.66 11.34 5.32 11 6 C11.64195313 6.20238281 12.28390625 6.40476563 12.9453125 6.61328125 C15 8 15 8 15.6796875 10.73046875 C16.91233821 32.54838626 16.91233821 32.54838626 12.42578125 39.40625 C8.99677944 41.65912076 5.83335074 41.50954144 1.875 41.375 C0.78251953 41.37306641 0.78251953 41.37306641 -0.33203125 41.37109375 C-5.71851504 41.28148496 -5.71851504 41.28148496 -8 39 C-7.875 35.5 -7.875 35.5 -7 32 C-4.9453125 30.78125 -4.9453125 30.78125 -3 30 C-3.01047363 29.44127197 -3.02094727 28.88254395 -3.03173828 28.30688477 C-3.07383379 25.7254707 -3.09949343 23.14412924 -3.125 20.5625 C-3.14175781 19.68400391 -3.15851562 18.80550781 -3.17578125 17.90039062 C-3.21887295 12.06146471 -2.7533476 6.59958253 -1 1 C-0.67 0.67 -0.34 0.34 0 0 Z " fill="#424656" transform="translate(32,129)"/>
<path d="M0 0 C0.99 0.33 1.98 0.66 3 1 C3.33 4.63 3.66 8.26 4 12 C5.65 12.66 7.3 13.32 9 14 C9.66 14.33 10.32 14.66 11 15 C11 14.01 11 13.02 11 12 C11.99 12.33 12.98 12.66 14 13 C14 15.64 14 18.28 14 21 C15.32 20.67 16.64 20.34 18 20 C18 21.65 18 23.3 18 25 C14.52674819 26.1577506 11.63932552 26.06866652 8 26 C8.99 23.69 9.98 21.38 11 19 C10.484375 18.896875 9.96875 18.79375 9.4375 18.6875 C5.45294774 17.56365193 1.69884816 15.84942408 -2 14 C-2 14.66 -2 15.32 -2 16 C-3.5 17.625 -3.5 17.625 -5 19 C-2.02148438 18.90234375 -2.02148438 18.90234375 0.95703125 18.8046875 C3 19 3 19 6 21 C5.67 21.66 5.34 22.32 5 23 C4.33613281 22.97679688 3.67226563 22.95359375 2.98828125 22.9296875 C-3.72861016 22.76375695 -3.72861016 22.76375695 -10 25 C-9.2575 25.0825 -8.515 25.165 -7.75 25.25 C-4.35738601 26.17525836 -3.20401117 27.28171956 -1 30 C0.06011943 31.96879323 1.07470849 33.96435867 2 36 C2.99 35.34 3.98 34.68 5 34 C4.63803085 36.67857172 4.26012724 38.60980914 2.75 40.875 C1 42 1 42 -1.3125 41.9375 C-8.66800803 39.37162511 -12.31579271 34.58052687 -16 28 C-17.60939102 24.56519232 -18.2380477 21.97459799 -18.125 18.1875 C-18.10695313 17.39730469 -18.08890625 16.60710938 -18.0703125 15.79296875 C-18.03550781 14.90544922 -18.03550781 14.90544922 -18 14 C-17.34 14 -16.68 14 -16 14 C-15.896875 13.236875 -15.79375 12.47375 -15.6875 11.6875 C-14.95288806 8.81583516 -14.3283935 7.76957906 -12 6 C-11.34 6 -10.68 6 -10 6 C-9.67 7.32 -9.34 8.64 -9 10 C-5.98943576 7.14788651 -3.74400999 4.7563292 -2 1 C-1.34 0.67 -0.68 0.34 0 0 Z " fill="#A76D4F" transform="translate(20,25)"/>
<path d="M0 0 C0.66 0 1.32 0 2 0 C2.144375 1.175625 2.28875 2.35125 2.4375 3.5625 C2.91410176 7.38212272 3.44453544 11.19110019 4 15 C3.401875 15.061875 2.80375 15.12375 2.1875 15.1875 C-0.15736492 15.84769652 -0.15736492 15.84769652 -1.625 18 C-3.12364658 21.26977435 -3.82969246 24.32813683 -4.52734375 27.83984375 C-5.07899648 30.36103348 -5.9388574 32.65032709 -7 35 C-6.34 35 -5.68 35 -5 35 C-4.375 37.3125 -4.375 37.3125 -4 40 C-4.66 40.99 -5.32 41.98 -6 43 C-5.6878236 45.64632287 -5.6878236 45.64632287 -5 48 C-14.7003861 48.76447876 -14.7003861 48.76447876 -19.1875 46.125 C-22.51380355 40.38999387 -21.54383413 34.46018383 -20.0625 28.1875 C-16.93268813 18.82759091 -10.3047945 10.32073547 -2.53125 4.3671875 C-0.71504763 2.97355275 -0.71504763 2.97355275 0 0 Z " fill="#E9E6E7" transform="translate(32,86)"/>
<path d="M0 0 C1.2065625 0.0309375 1.2065625 0.0309375 2.4375 0.0625 C1.93146008 2.23124252 1.43766187 4.06217627 0.4375 6.0625 C0.397508 8.06210012 0.39403201 10.06297242 0.4375 12.0625 C2.677335 13.01270416 2.677335 13.01270416 5.4375 13.0625 C8.06244782 10.77098923 8.06244782 10.77098923 10.4375 8.0625 C13.24061643 5.93599788 15.17998733 6.00322834 18.5625 6.375 C22.4375 7.0625 22.4375 7.0625 24.4375 8.0625 C24.7675 7.0725 25.0975 6.0825 25.4375 5.0625 C26.67447917 6.59244792 27.91145833 8.12239583 29.1484375 9.65234375 C30.4041391 11.19516437 30.4041391 11.19516437 32.4375 12.0625 C33.0975 10.4125 33.7575 8.7625 34.4375 7.0625 C34.7675 7.0625 35.0975 7.0625 35.4375 7.0625 C35.08567142 15.4536117 35.08567142 15.4536117 32.375 18 C31.735625 18.350625 31.09625 18.70125 30.4375 19.0625 C30.4375 19.7225 30.4375 20.3825 30.4375 21.0625 C31.4275 21.3925 32.4175 21.7225 33.4375 22.0625 C32.4375 25.0625 32.4375 25.0625 30.4375 26.0625 C30.9325 28.5375 30.9325 28.5375 31.4375 31.0625 C28.4375 30.0625 28.4375 30.0625 27.0625 27.984375 C26.52625 27.35015625 25.99 26.7159375 25.4375 26.0625 C23.01238204 25.79566684 23.01238204 25.79566684 20.4375 26.3125 C19.138125 26.50585938 19.138125 26.50585938 17.8125 26.703125 C17.02875 26.82171875 16.245 26.9403125 15.4375 27.0625 C14.4475 27.0625 13.4575 27.0625 12.4375 27.0625 C12.7675 26.0725 13.0975 25.0825 13.4375 24.0625 C12.1175 24.3925 10.7975 24.7225 9.4375 25.0625 C9.2421875 23.01171875 9.046875 20.9609375 8.8515625 18.91015625 C8.64660156 17.99556641 8.64660156 17.99556641 8.4375 17.0625 C7.7775 16.7325 7.1175 16.4025 6.4375 16.0625 C6.4375 17.0525 6.4375 18.0425 6.4375 19.0625 C1.6875 17.1875 1.6875 17.1875 -0.5625 16.0625 C-1.1953125 13.55859375 -1.1953125 13.55859375 -1.6875 10.5 C-1.93886719 8.98212891 -1.93886719 8.98212891 -2.1953125 7.43359375 C-2.31648438 6.65113281 -2.43765625 5.86867188 -2.5625 5.0625 C-3.5525 5.0625 -4.5425 5.0625 -5.5625 5.0625 C-3.15007962 0.07683121 -3.15007962 0.07683121 0 0 Z " fill="#DCCCC3" transform="translate(24.5625,20.9375)"/>
<path d="M0 0 C3.81477116 0.54496731 5.52338148 2.11061173 8 5 C8.309375 5.639375 8.61875 6.27875 8.9375 6.9375 C9.99642841 9.25040818 9.99642841 9.25040818 12.5 11.5 C15.97403922 14.97403922 17.30797985 17.71248443 17.5 22.625 C17.3166397 29.95941196 13.80336014 35.3151559 8.59765625 40.30078125 C7.01279876 41.67031845 5.40107467 43.0097116 3.7578125 44.30859375 C3.17773438 44.86675781 2.59765625 45.42492187 2 46 C2 46.99 2 47.98 2 49 C1.01 48.67 0.02 48.34 -1 48 C-1 47.01 -1 46.02 -1 45 C-1.66 45 -2.32 45 -3 45 C-2.85904936 43.3745692 -2.71207913 41.74965949 -2.5625 40.125 C-2.48128906 39.22007813 -2.40007812 38.31515625 -2.31640625 37.3828125 C-2 35 -2 35 -1 33 C3.62 33 8.24 33 13 33 C13.66 30.36 14.32 27.72 15 25 C9.39 25 3.78 25 -2 25 C-1.34 23.68 -0.68 22.36 0 21 C3.625 20.25 3.625 20.25 7 20 C6.39671875 20.04898438 5.7934375 20.09796875 5.171875 20.1484375 C4.37265625 20.22320312 3.5734375 20.29796875 2.75 20.375 C1.96109375 20.44460937 1.1721875 20.51421875 0.359375 20.5859375 C-2.085877 21.01507113 -3.84836903 21.78600638 -6 23 C-6 21.02 -6 19.04 -6 17 C-5.236875 16.855625 -4.47375 16.71125 -3.6875 16.5625 C-0.91827092 16.0367406 -0.91827092 16.0367406 2 15 C3.60897228 10.17308317 2.07117807 7.47374463 0 3 C0 2.01 0 1.02 0 0 Z " fill="#AF7B5D" transform="translate(83,21)"/>
<path d="M0 0 C5.75 1.625 5.75 1.625 8 5 C11.12557959 5.36530232 11.12557959 5.36530232 14.625 5.1875 C15.81351563 5.16042969 17.00203125 5.13335937 18.2265625 5.10546875 C19.14179687 5.07066406 20.05703125 5.03585938 21 5 C21 5.99 21 6.98 21 8 C15.70769231 11.07692308 15.70769231 11.07692308 12.125 10.6875 C11.42375 10.460625 10.7225 10.23375 10 10 C10.33 12.97 10.66 15.94 11 19 C10.16855469 18.94199219 9.33710937 18.88398437 8.48046875 18.82421875 C7.39378906 18.77910156 6.30710937 18.73398437 5.1875 18.6875 C4.10855469 18.62949219 3.02960938 18.57148437 1.91796875 18.51171875 C0.47357422 18.75341797 0.47357422 18.75341797 -1 19 C-2.65251531 21.4762907 -2.65251531 21.4762907 -4 24 C-5.32 24 -6.64 24 -8 24 C-8.66 22.02 -9.32 20.04 -10 18 C-9.01 17.67 -8.02 17.34 -7 17 C-6.67 16.34 -6.34 15.68 -6 15 C-7.32 14.67 -8.64 14.34 -10 14 C-8.71914841 10.15744523 -6.72609411 9.00468298 -3.59375 6.59765625 C-1.75032596 4.74971401 -1.46369069 3.52395274 -1 1 C-0.67 0.67 -0.34 0.34 0 0 Z " fill="#EBDFD5" transform="translate(64,28)"/>
<path d="M0 0 C1.32 0 2.64 0 4 0 C4.185625 0.721875 4.37125 1.44375 4.5625 2.1875 C6.54733708 6.0708769 9.00807563 8.22664986 13 10 C15.34147393 10.14008818 17.57517441 10.00314598 19.9140625 9.85546875 C22 10 22 10 25 12.3125 C27 15 27 15 28 18 C27.01 18.33 26.02 18.66 25 19 C24.34 19.66 23.68 20.32 23 21 C23 19.68 23 18.36 23 17 C20.03 17 17.06 17 14 17 C13.690625 18.0828125 13.690625 18.0828125 13.375 19.1875 C11.53070351 22.95992464 9.49476443 24.69213669 6 27 C2.125 27.3125 2.125 27.3125 -1 27 C-1.33 26.34 -1.66 25.68 -2 25 C-0.96939453 24.85304688 -0.96939453 24.85304688 0.08203125 24.703125 C0.98308594 24.55359375 1.88414063 24.4040625 2.8125 24.25 C3.70582031 24.11078125 4.59914063 23.9715625 5.51953125 23.828125 C8.50572658 22.831159 9.38380344 21.6417565 11 19 C10.01 18.67 9.02 18.34 8 18 C8 17.34 8 16.68 8 16 C6.7625 16.2475 6.7625 16.2475 5.5 16.5 C1.58727683 17.05896045 -2.05183173 17.06807187 -6 17 C-6.33 15.68 -6.66 14.36 -7 13 C-2.25 11.875 -2.25 11.875 0 13 C-0.33 11.68 -0.66 10.36 -1 9 C-1.99 9 -2.98 9 -4 9 C-2.25 2.25 -2.25 2.25 0 0 Z " fill="#F1C09E" transform="translate(56,57)"/>
<path d="M0 0 C1.32 0.33 2.64 0.66 4 1 C3.67 2.65 3.34 4.3 3 6 C4.5159375 5.01 4.5159375 5.01 6.0625 4 C9.78062891 1.84500284 12.68915491 1.64809428 17 2 C16.67 2.66 16.34 3.32 16 4 C13.69 4 11.38 4 9 4 C8.20046862 7.28696233 7.90341064 8.71023192 9 12 C3.555 11.505 3.555 11.505 -2 11 C-1.175 11.4125 -0.35 11.825 0.5 12.25 C1.325 12.8275 2.15 13.405 3 14 C3 15.32 3 16.64 3 18 C-1.50462014 19.36503641 -4.64334521 18.67563646 -9 17 C-9.33 16.01 -9.66 15.02 -10 14 C-10.30495508 17.88817732 -10.29233945 20.4026107 -8.5625 23.9375 C-5.27856287 26.58066891 -3.22161746 26.48864671 0.87890625 26.37109375 C3.29332373 26.09551245 3.29332373 26.09551245 6 24 C6 25.32 6 26.64 6 28 C6.66 28 7.32 28 8 28 C8.33 29.32 8.66 30.64 9 32 C6.61435923 31.42415568 4.33317216 30.77772405 2 30 C0.906875 30.061875 -0.18625 30.12375 -1.3125 30.1875 C-5.89726865 29.95437617 -7.67814468 29.16735042 -11 26 C-12.06495359 23.03953092 -12.61372607 20.11683104 -13 17 C-16.96 17.495 -16.96 17.495 -21 18 C-20.67 16.68 -20.34 15.36 -20 14 C-18.02 14 -16.04 14 -14 14 C-13.690625 13.195625 -13.38125 12.39125 -13.0625 11.5625 C-12 9 -12 9 -11 8 C-6.56708416 7.8546585 -3.32677122 7.91830719 1 9 C0.67 6.03 0.34 3.06 0 0 Z " fill="#89685C" transform="translate(74,38)"/>
<path d="M0 0 C5.44736842 0.60526316 5.44736842 0.60526316 7.75 2.25 C10.00677085 5.40947918 11 8.11935724 11 12 C11.9075 11.505 12.815 11.01 13.75 10.5 C17 9 17 9 21 9 C26.01371841 17.81877256 26.01371841 17.81877256 25 23 C22.52179302 27.31687668 22.52179302 27.31687668 20 29 C16.91011512 29.65526869 14.07222184 29.77861811 11 29 C10.34 28.01 9.68 27.02 9 26 C9.66 25.01 10.32 24.02 11 23 C11.99 23 12.98 23 14 23 C12.15811388 20.94729537 12.15811388 20.94729537 10 20 C10.144375 19.154375 10.28875 18.30875 10.4375 17.4375 C9.79558415 12.3938755 6.79717002 10.1548222 3 7 C2.01 6.34 1.02 5.68 0 5 C-0.1875 2.375 -0.1875 2.375 0 0 Z " fill="#894F39" transform="translate(73,101)"/>
<path d="M0 0 C1.155 0.165 2.31 0.33 3.5 0.5 C6.4013281 0.87222663 8.98421097 0.9843776 11.9375 0.9375 C16.93143304 0.8782834 22.7176297 1.19759124 26.74609375 4.37890625 C28.65828944 6.85105956 28.2624967 8.98128801 28 12 C26.06087113 13.93912887 22.56480731 13.17477774 20 13.1875 C5.82916385 13.15555341 5.82916385 13.15555341 1.27734375 9.6875 C-0.98904985 6.69336534 -0.17890122 3.63765819 0 0 Z " fill="#542D27" transform="translate(59,154)"/>
<path d="M0 0 C4.9053984 -0.28855285 8.1554435 -0.26204794 12 3 C12 4.32 12 5.64 12 7 C12.66 7 13.32 7 14 7 C14.625 9.3125 14.625 9.3125 15 12 C14.01 13.485 14.01 13.485 13 15 C13.3121764 17.64632287 13.3121764 17.64632287 14 20 C4.2996139 20.76447876 4.2996139 20.76447876 -0.1875 18.125 C-2.74902311 13.70858084 -2.64623873 9.98994465 -2 5 C-1 1.875 -1 1.875 0 0 Z " fill="#9F6347" transform="translate(13,114)"/>
<path d="M0 0 C19.7918972 -1.11302666 19.7918972 -1.11302666 25.4375 2.9375 C26.33275391 3.75541016 26.33275391 3.75541016 27.24609375 4.58984375 C29.42985827 6.34560988 31.25715237 6.62832768 34 7 C34 7.33 34 7.66 34 8 C31.69 8 29.38 8 27 8 C27 9.32 27 10.64 27 12 C26.01 12 25.02 12 24 12 C24 12.66 24 13.32 24 14 C18.72 12.68 13.44 11.36 8 10 C8 9.01 8 8.02 8 7 C3.545 6.01 3.545 6.01 -1 5 C-0.67 3.35 -0.34 1.7 0 0 Z " fill="#542D26" transform="translate(27,78)"/>
<path d="M0 0 C0.66 0 1.32 0 2 0 C2 0.99 2 1.98 2 3 C2.87011719 3.05607422 2.87011719 3.05607422 3.7578125 3.11328125 C8.78424856 3.53629815 12.64706809 4.23960415 17 7 C17.99 8.485 17.99 8.485 19 10 C22.54171978 10.16669318 22.54171978 10.16669318 26 10 C27.89885096 11.89885096 27.12367506 14.57247903 27.1328125 17.08984375 C27 19 27 19 26 21 C24.68 21 23.36 21 22 21 C21.67 21.66 21.34 22.32 21 23 C21 20.36 21 17.72 21 15 C20.236875 14.731875 19.47375 14.46375 18.6875 14.1875 C16 13 16 13 14.5625 11.375 C12.19899578 9.29511629 10.0414359 9.8705772 7 10 C6.34 9.67 5.68 9.34 5 9 C5 10.98 5 12.96 5 15 C6.65 15 8.3 15 10 15 C8.60804085 17.7839183 6.84424221 17.97898997 4 19 C4.33 19.99 4.66 20.98 5 22 C1.93882432 24.62386487 1.26826873 25 -3 25 C-3.66 25.33 -4.32 25.66 -5 26 C-4.5309551 21.87240487 -4.06048338 18.94713214 -1 16 C0.32 16 1.64 16 3 16 C2.7834375 15.34773438 2.566875 14.69546875 2.34375 14.0234375 C0.81497692 9.22478868 -0.40269324 5.10078102 0 0 Z " fill="#A49B9B" transform="translate(33,85)"/>
<path d="M0 0 C11.385 0.99 11.385 0.99 23 2 C23 3.65 23 5.3 23 7 C23.66 7 24.32 7 25 7 C25.04898438 7.71027344 25.09796875 8.42054688 25.1484375 9.15234375 C25.22320312 10.07144531 25.29796875 10.99054688 25.375 11.9375 C25.44460937 12.85402344 25.51421875 13.77054688 25.5859375 14.71484375 C25.72257812 15.46894531 25.85921875 16.22304687 26 17 C26.66 17.33 27.32 17.66 28 18 C27.01 18 26.02 18 25 18 C25 18.66 25 19.32 25 20 C25.66 20.33 26.32 20.66 27 21 C23.625 21.625 23.625 21.625 20 22 C17.27893306 19.27893306 17.39344428 17.15223689 16.875 13.375 C16.70742188 12.18648437 16.53984375 10.99796875 16.3671875 9.7734375 C16.24601562 8.85820312 16.12484375 7.94296875 16 7 C12.26414791 7 10.98459129 7.04457812 8 9 C7.67 9.99 7.34 10.98 7 12 C6.34 12 5.68 12 5 12 C5 9.03 5 6.06 5 3 C2.525 2.01 2.525 2.01 0 1 C0 0.67 0 0.34 0 0 Z " fill="#252530" transform="translate(42,134)"/>
<path d="M0 0 C3.63 0.66 7.26 1.32 11 2 C10.01 2.66 9.02 3.32 8 4 C8.7425 4.0825 9.485 4.165 10.25 4.25 C13.64261399 5.17525836 14.79598883 6.28171956 17 9 C18.06011943 10.96879323 19.07470849 12.96435867 20 15 C20.99 14.34 21.98 13.68 23 13 C22.63803085 15.67857172 22.26012724 17.60980914 20.75 19.875 C19 21 19 21 16.6875 20.9375 C9.35901232 18.38105081 5.58339522 13.63261972 2 7 C1.09834035 4.64709767 0.52631614 2.47368585 0 0 Z " fill="#714237" transform="translate(2,46)"/>
<path d="M0 0 C0.99 0.66 1.98 1.32 3 2 C3 2.66 3 3.32 3 4 C2.01 4 1.02 4 0 4 C1.2375 5.5159375 1.2375 5.5159375 2.5 7.0625 C5.17653877 10.82330235 5.59283356 13.34202201 5 18 C4.125 21.375 4.125 21.375 3 24 C2.34 24.33 1.68 24.66 1 25 C1 24.01 1 23.02 1 22 C-0.65 21.67 -2.3 21.34 -4 21 C-2.35 19.35 -0.7 17.7 1 16 C0.02061173 15.02061173 -0.98954415 14.07230236 -2 13.125 C-4 11 -4 11 -5 8 C-5.99 7.34 -6.98 6.68 -8 6 C-8 5.34 -8 4.68 -8 4 C-10.31 4 -12.62 4 -15 4 C-10.6048825 -0.3951175 -5.88778285 -0.37985696 0 0 Z " fill="#431D17" transform="translate(23,47)"/>
<path d="M0 0 C3.6250059 8.60938902 2.41944009 16.57352265 -1 25 C-2.32 25 -3.64 25 -5 25 C-5 23.68 -5 22.36 -5 21 C-5.31073888 18.28658372 -5.64164802 15.58201019 -6 12.875 C-7 5.23986486 -7 5.23986486 -7 3 C-7.66 2.34 -8.32 1.68 -9 1 C-5.8035914 -0.06546953 -3.34252724 -0.07427838 0 0 Z " fill="#50525F" transform="translate(76,130)"/>
<path d="M0 0 C1.25425781 0.00902344 2.50851563 0.01804688 3.80078125 0.02734375 C4.75339844 0.03894531 5.70601562 0.05054688 6.6875 0.0625 C6.51962371 4.42728343 6.35119248 6.43118276 3.125 9.5 C-1.27655266 11.50070576 -3.51784379 11.68116532 -8.3125 11.0625 C-10.8125 9.4375 -10.8125 9.4375 -12.3125 7.0625 C-12.5625 3.8125 -12.5625 3.8125 -12.3125 1.0625 C-8.15623632 0.05323521 -4.26884906 -0.03989579 0 0 Z " fill="#221D24" transform="translate(45.3125,55.9375)"/>
<path d="M0 0 C4.95 0 9.9 0 15 0 C16.33519008 2.67038017 15.80789616 4.09217759 15.25 7 C15.01023437 8.3303125 15.01023437 8.3303125 14.765625 9.6875 C14 12 14 12 11 14 C8.23344676 14.14245897 5.57346694 14.18769445 2.8125 14.125 C2.06291016 14.11597656 1.31332031 14.10695312 0.54101562 14.09765625 C-1.30612654 14.07412578 -3.15310412 14.03825561 -5 14 C-5.66 12.68 -6.32 11.36 -7 10 C-2.9472484 9.01751476 0.83861737 8.91840426 5 9 C5 9.66 5 10.32 5 11 C7.31 11 9.62 11 12 11 C11.67 8.69 11.34 6.38 11 4 C10.37351562 4.01160156 9.74703125 4.02320313 9.1015625 4.03515625 C8.28429688 4.04417969 7.46703125 4.05320313 6.625 4.0625 C5.81289063 4.07410156 5.00078125 4.08570313 4.1640625 4.09765625 C2 4 2 4 0 3 C0 2.01 0 1.02 0 0 Z " fill="#6A4339" transform="translate(31,156)"/>
<path d="M0 0 C5.75 1.625 5.75 1.625 8 5 C11.12557959 5.36530232 11.12557959 5.36530232 14.625 5.1875 C15.81351563 5.16042969 17.00203125 5.13335937 18.2265625 5.10546875 C19.14179687 5.07066406 20.05703125 5.03585938 21 5 C21 5.99 21 6.98 21 8 C15.70769231 11.07692308 15.70769231 11.07692308 12.125 10.6875 C11.42375 10.460625 10.7225 10.23375 10 10 C10.33 12.97 10.66 15.94 11 19 C7.37 18.67 3.74 18.34 0 18 C0 17.67 0 17.34 0 17 C1.98 16.67 3.96 16.34 6 16 C5.814375 15.2575 5.62875 14.515 5.4375 13.75 C5.00796892 11.05009037 5.14877026 9.55368923 6 7 C3.08235 5.0549 1.37462715 4.54723683 -2 4 C-1.34 2.68 -0.68 1.36 0 0 Z " fill="#E2D3C7" transform="translate(64,28)"/>
<path d="M0 0 C0.99 0.33 1.98 0.66 3 1 C3.33 4.63 3.66 8.26 4 12 C5.65 12.66 7.3 13.32 9 14 C9.66 14.33 10.32 14.66 11 15 C11 14.01 11 13.02 11 12 C11.66 12.33 12.32 12.66 13 13 C12.67 13.99 12.34 14.98 12 16 C6.32241324 15.53652353 2.69964834 14.28975384 -2 11 C-2.33 9.68 -2.66 8.36 -3 7 C-5.64 9.64 -8.28 12.28 -11 15 C-11.99 14.34 -12.98 13.68 -14 13 C-14.33 13.66 -14.66 14.32 -15 15 C-15.99 14.67 -16.98 14.34 -18 14 C-17.34 14 -16.68 14 -16 14 C-15.896875 13.236875 -15.79375 12.47375 -15.6875 11.6875 C-14.95288806 8.81583516 -14.3283935 7.76957906 -12 6 C-11.34 6 -10.68 6 -10 6 C-9.67 7.32 -9.34 8.64 -9 10 C-5.98943576 7.14788651 -3.74400999 4.7563292 -2 1 C-1.34 0.67 -0.68 0.34 0 0 Z " fill="#C07F55" transform="translate(20,25)"/>
<path d="M0 0 C2.375 2.3125 2.375 2.3125 4 5 C4 5.99 4 6.98 4 8 C-8.89228103 9.63711505 -8.89228103 9.63711505 -14 9 C-14.66 8.34 -15.32 7.68 -16 7 C-14.73721868 3.21165605 -13.47887048 2.77988722 -10 1 C-6.65773125 -0.18596633 -3.51984666 -0.43998083 0 0 Z " fill="#34363F" transform="translate(50,46)"/>
<path d="M0 0 C4.65296663 3.80697269 9.02023679 7.85788661 13.3125 12.0625 C13.84004883 12.5687793 14.36759766 13.07505859 14.91113281 13.59667969 C17.86525682 16.52413848 19.78914695 19.00051568 21 23 C17.25 26 17.25 26 15 26 C15 24.68 15 23.36 15 22 C14.01 22 13.02 22 12 22 C11.773125 20.9275 11.54625 19.855 11.3125 18.75 C9.79965044 14.42757268 8.49729877 13.765306 5 11 C0 3.44565217 0 3.44565217 0 0 Z " fill="#F7F6F4" transform="translate(72,86)"/>
<path d="M0 0 C0.33 0.99 0.66 1.98 1 3 C1.77085938 3.02578125 2.54171875 3.0515625 3.3359375 3.078125 C4.84027344 3.16320312 4.84027344 3.16320312 6.375 3.25 C7.87160156 3.31960937 7.87160156 3.31960937 9.3984375 3.390625 C12 4 12 4 13.375 5.90625 C14.10370135 8.34739952 13.84677166 9.62903936 13 12 C10.69 11.67 8.38 11.34 6 11 C6 10.34 6 9.68 6 9 C4.948125 9.165 3.89625 9.33 2.8125 9.5 C-0.20468796 9.89569678 -2.97093972 10.09178971 -6 10 C-5.1875 7.0625 -5.1875 7.0625 -4 4 C-3.01 3.67 -2.02 3.34 -1 3 C-0.67 2.01 -0.34 1.02 0 0 Z " fill="#B26D47" transform="translate(30,156)"/>
<path d="M0 0 C0.66 0 1.32 0 2 0 C2.144375 1.175625 2.28875 2.35125 2.4375 3.5625 C2.91410176 7.38212272 3.44453544 11.19110019 4 15 C3.401875 15.061875 2.80375 15.12375 2.1875 15.1875 C-0.15736492 15.84769652 -0.15736492 15.84769652 -1.625 18 C-3.14714518 21.32104403 -3.84040982 24.42898898 -4.47265625 28.01171875 C-5 30 -5 30 -7 32 C-8.59370958 28.81258084 -7.71672063 25.55935572 -7.3125 22.125 C-7.24611328 21.40441406 -7.17972656 20.68382813 -7.11132812 19.94140625 C-6.56152058 15.23990237 -5.58345866 13.05038216 -2 10 C-2.31229724 8.66158328 -2.64830932 7.32860925 -3 6 C-1.5625 2.75 -1.5625 2.75 0 0 Z " fill="#D6D5D5" transform="translate(32,86)"/>
<path d="M0 0 C2.25 2 2.25 2 4 4 C4 4.66 4 5.32 4 6 C3.01 6.33 2.02 6.66 1 7 C0.34 7.66 -0.32 8.32 -1 9 C-1 7.68 -1 6.36 -1 5 C-3.97 5 -6.94 5 -10 5 C-10.20625 5.721875 -10.4125 6.44375 -10.625 7.1875 C-12.46929649 10.95992464 -14.50523557 12.69213669 -18 15 C-21.875 15.3125 -21.875 15.3125 -25 15 C-25.33 14.34 -25.66 13.68 -26 13 C-24.96939453 12.85304688 -24.96939453 12.85304688 -23.91796875 12.703125 C-23.01691406 12.55359375 -22.11585937 12.4040625 -21.1875 12.25 C-20.29417969 12.11078125 -19.40085937 11.9715625 -18.48046875 11.828125 C-15.49427342 10.831159 -14.61619656 9.6417565 -13 7 C-13.99 6.34 -14.98 5.68 -16 5 C-14.68 5 -13.36 5 -12 5 C-11.34 3.02 -10.68 1.04 -10 -1 C-5.92142257 -1.92694942 -3.5073568 -2.45514976 0 0 Z " fill="#BB8471" transform="translate(80,69)"/>
<path d="M0 0 C0.66 0 1.32 0 2 0 C4.40929552 5.63433678 4.23079831 10.8689111 4.125 16.875 C4.11597656 17.84953125 4.10695313 18.8240625 4.09765625 19.828125 C4.07421623 22.21900728 4.04140442 24.60937261 4 27 C2.02 27 0.04 27 -2 27 C-2.33 25.35 -2.66 23.7 -3 22 C-2.01 22 -1.02 22 0 22 C0 21.34 0 20.68 0 20 C-0.66 20 -1.32 20 -2 20 C-1.855625 18.741875 -1.71125 17.48375 -1.5625 16.1875 C-0.96183814 10.79870505 -0.47449461 5.40116209 0 0 Z " fill="#D4D3D3" transform="translate(51,107)"/>
<path d="M0 0 C3.27066566 -0.08706892 6.54103365 -0.14041241 9.8125 -0.1875 C10.74126953 -0.21263672 11.67003906 -0.23777344 12.62695312 -0.26367188 C13.9659668 -0.27817383 13.9659668 -0.27817383 15.33203125 -0.29296875 C16.56530151 -0.31653442 16.56530151 -0.31653442 17.82348633 -0.34057617 C20.47502434 0.07433079 21.33263592 0.95529751 23 3 C17.675665 5.32086397 13.56157448 4.91457003 8 4 C9.85019703 7.26505358 10.816607 7.94432713 14.5 9.0625 C15.655 9.371875 16.81 9.68125 18 10 C19.71875 11.55859375 19.71875 11.55859375 21 13 C19.20767663 12.69128878 17.41615679 12.37790936 15.625 12.0625 C14.62726562 11.88847656 13.62953125 11.71445313 12.6015625 11.53515625 C10 11 10 11 8 10 C8 9.01 8 8.02 8 7 C3.545 6.01 3.545 6.01 -1 5 C-0.67 3.35 -0.34 1.7 0 0 Z " fill="#6F3A2E" transform="translate(27,78)"/>
<path d="M0 0 C5 1.66666667 10 3.33333333 15 5 C15 4.01 15 3.02 15 2 C15.66 2 16.32 2 17 2 C17 4.64 17 7.28 17 10 C18.32 9.67 19.64 9.34 21 9 C21 10.65 21 12.3 21 14 C17.52674819 15.1577506 14.63932552 15.06866652 11 15 C11.99 12.69 12.98 10.38 14 8 C13.484375 7.896875 12.96875 7.79375 12.4375 7.6875 C8.45294774 6.56365193 4.69884816 4.84942408 1 3 C1 3.66 1 4.32 1 5 C-0.875 7.125 -0.875 7.125 -3 9 C-3.66 9 -4.32 9 -5 9 C-4.67 7.68 -4.34 6.36 -4 5 C-2.68 4.67 -1.36 4.34 0 4 C0 2.68 0 1.36 0 0 Z " fill="#A06445" transform="translate(17,36)"/>
<path d="M0 0 C9.78268711 -0.4625789 9.78268711 -0.4625789 14.125 1.1875 C16.40912508 3.39548758 16.74664237 4.87525593 17 8 C15.68 7.34 14.36 6.68 13 6 C13 6.66 13 7.32 13 8 C11.35 7.67 9.7 7.34 8 7 C8 7.66 8 8.32 8 9 C2.25 7.25 2.25 7.25 0 5 C-0.125 2.375 -0.125 2.375 0 0 Z " fill="#94492B" transform="translate(70,156)"/>
<path d="M0 0 C3 1 3 1 4.16796875 2.63671875 C6.2693006 6.8635357 7.78647785 10.16877892 7 15 C5.5 16.875 5.5 16.875 4 18 C4.33 16.35 4.66 14.7 5 13 C4.34 13 3.68 13 3 13 C3 13.66 3 14.32 3 15 C1.68 15 0.36 15 -1 15 C-2.17571451 11.32589215 -2.07366746 7.83070817 -2 4 C-2.66 3.67 -3.32 3.34 -4 3 C-2.1875 1.4375 -2.1875 1.4375 0 0 Z " fill="#C78D68" transform="translate(91,109)"/>
<path d="M0 0 C3.81477116 0.54496731 5.52338148 2.11061173 8 5 C8.309375 5.639375 8.61875 6.27875 8.9375 6.9375 C9.99642841 9.25040818 9.99642841 9.25040818 12.5 11.5 C16.07803037 15.07803037 16.95503813 16.65114383 17.125 21.75 C17.08375 22.8225 17.0425 23.895 17 25 C15 22 15 22 15 19 C14.38125 18.87625 13.7625 18.7525 13.125 18.625 C11 18 11 18 9 16 C8.34 16.33 7.68 16.66 7 17 C6.67 14.03 6.34 11.06 6 8 C5.34 8 4.68 8 4 8 C2.5393715 5.35261084 2 4.10551666 2 1 C1.34 0.67 0.68 0.34 0 0 Z " fill="#C79A7B" transform="translate(83,21)"/>
<path d="M0 0 C2.27141109 0.11402064 4.54214552 0.24158505 6.8125 0.375 C8.07707031 0.44460937 9.34164062 0.51421875 10.64453125 0.5859375 C14 1 14 1 17 3 C16.42655063 5.86724686 16.1385485 6.8614515 14 9 C10.92218054 9.62886684 8.07794676 9.62089616 5 9 C2.54166913 7.21263558 1.62641802 5.67571996 0 3 C0 2.01 0 1.02 0 0 Z " fill="#2C272D" transform="translate(63,56)"/>
<path d="M0 0 C-1.32 0.33 -2.64 0.66 -4 1 C-3.67 1.99 -3.34 2.98 -3 4 C1.62 4 6.24 4 11 4 C7.13309652 5.93345174 5.69473819 6.27292504 1.5625 6.25 C0.63566406 6.25515625 -0.29117188 6.2603125 -1.24609375 6.265625 C-4.16452598 5.98413083 -6.3153029 5.13425022 -9 4 C-11.21858253 4.13641377 -11.21858253 4.13641377 -13 5 C-13.33 5.66 -13.66 6.32 -14 7 C-16.97 7 -19.94 7 -23 7 C-23.33 6.01 -23.66 5.02 -24 4 C-21.24344593 2.49829517 -18.83355293 1.63496213 -15.7421875 1.11328125 C-14.95199219 0.97986328 -14.16179688 0.84644531 -13.34765625 0.70898438 C-12.12369141 0.51272461 -12.12369141 0.51272461 -10.875 0.3125 C-10.05128906 0.17005859 -9.22757813 0.02761719 -8.37890625 -0.11914062 C-7.59128906 -0.24869141 -6.80367187 -0.37824219 -5.9921875 -0.51171875 C-5.27401855 -0.62990967 -4.55584961 -0.74810059 -3.81591797 -0.86987305 C-2 -1 -2 -1 0 0 Z " fill="#A97261" transform="translate(53,69)"/>
<path d="M0 0 C0.33 0 0.66 0 1 0 C1.20086443 3.71599191 1.1519437 4.77208445 -1 8 C-1.20449388 10.34758732 -1.20449388 10.34758732 -1.0625 12.875 C-0.98488615 16.41419154 -1.08060925 19.55228469 -2 23 C-3.98 23 -5.96 23 -8 23 C-8 21.35 -8 19.7 -8 18 C-6.68 18 -5.36 18 -4 18 C-4 14.7 -4 11.4 -4 8 C-6.31 8 -8.62 8 -11 8 C-11.33 7.34 -11.66 6.68 -12 6 C-8.43603465 3.69390477 -5.03626477 2.28426606 -1 1 C-0.67 0.67 -0.34 0.34 0 0 Z " fill="#9A5E4A" transform="translate(63,88)"/>
<path d="M0 0 C1.75 2 1.75 2 3 4 C2.4225 4.47050781 1.845 4.94101562 1.25 5.42578125 C0.5075 6.04839844 -0.235 6.67101563 -1 7.3125 C-1.7425 7.92738281 -2.485 8.54226562 -3.25 9.17578125 C-5.34613723 10.93950063 -5.34613723 10.93950063 -5 14 C-5.99 13.67 -6.98 13.34 -8 13 C-8 12.01 -8 11.02 -8 10 C-8.66 10 -9.32 10 -10 10 C-9.67 7.36 -9.34 4.72 -9 2 C-5.62902617 0.50178941 -3.79557881 0 0 0 Z " fill="#A77366" transform="translate(90,56)"/>
<path d="M0 0 C0.99 0 1.98 0 3 0 C7 4.34285714 7 4.34285714 7 7 C10.465 6.505 10.465 6.505 14 6 C14.061875 6.556875 14.12375 7.11375 14.1875 7.6875 C14.89543117 10.25004912 14.89543117 10.25004912 17.4375 12.375 C20.1947359 15.19948555 21.03405771 17.22404378 22 21 C20.62437146 19.71034824 19.29233607 18.37310707 18 17 C18 16.34 18 15.68 18 15 C13.89776415 13.98459888 13.89776415 13.98459888 10 15 C9.67 13.35 9.34 11.7 9 10 C8.34 10 7.68 10 7 10 C6.67 11.32 6.34 12.64 6 14 C5.67 14 5.34 14 5 14 C4.97421875 13.38511719 4.9484375 12.77023438 4.921875 12.13671875 C4.75034891 7.03484954 4.75034891 7.03484954 1.9375 3.0625 C1.298125 2.711875 0.65875 2.36125 0 2 C0 1.34 0 0.68 0 0 Z " fill="#F0EBE6" transform="translate(51,13)"/>
<path d="M0 0 C4.30404131 -0.15615569 7.70887525 -0.00574246 11.19140625 2.70703125 C13.07409929 4.75707479 14.69374473 6.53821121 16 9 C15.6796875 11.26171875 15.6796875 11.26171875 15 13 C14.2575 12.34 13.515 11.68 12.75 11 C10.02757055 8.60788553 10.02757055 8.60788553 6 9 C6 8.34 6 7.68 6 7 C4.35 7 2.7 7 1 7 C0.67 4.69 0.34 2.38 0 0 Z " fill="#CECCCE" transform="translate(37,93)"/>
<path d="M0 0 C1.65 0 3.3 0 5 0 C6.32229189 2.64458379 6.09677194 4.67761301 6.0625 7.625 C6.05347656 8.62789062 6.04445313 9.63078125 6.03515625 10.6640625 C6.02355469 11.43492188 6.01195312 12.20578125 6 13 C3.69 13 1.38 13 -1 13 C-0.67 8.71 -0.34 4.42 0 0 Z " fill="#666771" transform="translate(56,112)"/>
<path d="M0 0 C2.26171875 0.4609375 2.26171875 0.4609375 4.6875 1.375 C5.49574219 1.67148437 6.30398437 1.96796875 7.13671875 2.2734375 C7.75160156 2.51320312 8.36648437 2.75296875 9 3 C9.33 4.65 9.66 6.3 10 8 C5.48281619 9.36884358 2.41225737 8.47075246 -2 7 C-2.33 5.35 -2.66 3.7 -3 2 C-2.01 1.34 -1.02 0.68 0 0 Z " fill="#46434B" transform="translate(67,48)"/>
<path d="M0 0 C2.31 0.33 4.62 0.66 7 1 C6.125 6.75 6.125 6.75 5 9 C0.38 9 -4.24 9 -9 9 C-9.33 9.66 -9.66 10.32 -10 11 C-10 9.68 -10 8.36 -10 7 C-9.01 7 -8.02 7 -7 7 C-7 6.34 -7 5.68 -7 5 C-2.545 4.505 -2.545 4.505 2 4 C2.33 3.01 2.66 2.02 3 1 C2.01 0.67 1.02 0.34 0 0 Z " fill="#934E3D" transform="translate(91,45)"/>
<path d="M0 0 C0.45375 1.11375 0.9075 2.2275 1.375 3.375 C2.72465986 6.96199008 2.72465986 6.96199008 5 9 C3.39620659 9.05416188 1.79188594 9.09286638 0.1875 9.125 C-0.70582031 9.14820313 -1.59914063 9.17140625 -2.51953125 9.1953125 C-5 9 -5 9 -8 7 C-8.1875 3.875 -8.1875 3.875 -8 1 C-5.07175348 0.02391783 -3.04386724 -0.08226668 0 0 Z " fill="#6E392C" transform="translate(21,125)"/>
<path d="M0 0 C0.33 0 0.66 0 1 0 C1 1.98 1 3.96 1 6 C1.99 6 2.98 6 4 6 C4.2475 6.804375 4.495 7.60875 4.75 8.4375 C5.72238859 11.171081 5.72238859 11.171081 8.125 11.8125 C8.74375 11.874375 9.3625 11.93625 10 12 C10 12.66 10 13.32 10 14 C5.23692563 14.95261487 0.8333472 15.08333357 -4 15 C-4.33 13.68 -4.66 12.36 -5 11 C-0.25 9.875 -0.25 9.875 2 11 C1.67 9.68 1.34 8.36 1 7 C0.01 7 -0.98 7 -2 7 C-1.34 4.69 -0.68 2.38 0 0 Z " fill="#B67E6A" transform="translate(54,59)"/>
<path d="M0 0 C3.96 0 7.92 0 12 0 C12.33 1.32 12.66 2.64 13 4 C13.66 4 14.32 4 15 4 C16.3271261 7.9813783 16.06915913 11.85045227 16 16 C16.66 16.33 17.32 16.66 18 17 C17.34 17.99 16.68 18.98 16 20 C14.68 19.67 13.36 19.34 12 19 C12.33 18.01 12.66 17.02 13 16 C12.91538508 14.26675881 12.76395645 12.53607188 12.5625 10.8125 C12.46066406 9.91144531 12.35882813 9.01039063 12.25390625 8.08203125 C12.17011719 7.39496094 12.08632812 6.70789063 12 6 C11.34 6 10.68 6 10 6 C10 4.35 10 2.7 10 1 C6.7 1 3.4 1 0 1 C0 0.67 0 0.34 0 0 Z " fill="#3A3C4A" transform="translate(55,135)"/>
<path d="M0 0 C10.395 0.99 10.395 0.99 21 2 C21 2.33 21 2.66 21 3 C19.948125 3.268125 18.89625 3.53625 17.8125 3.8125 C11.78529657 5.67753785 11.78529657 5.67753785 7.6875 10.1875 C7.460625 10.785625 7.23375 11.38375 7 12 C6.34 12 5.68 12 5 12 C5 9.03 5 6.06 5 3 C2.525 2.01 2.525 2.01 0 1 C0 0.67 0 0.34 0 0 Z " fill="#2B2C36" transform="translate(42,134)"/>
<path d="M0 0 C5.44736842 0.60526316 5.44736842 0.60526316 7.75 2.25 C10.00677085 5.40947918 11 8.11935724 11 12 C11.66 12.33 12.32 12.66 13 13 C12.01 13.33 11.02 13.66 10 14 C9.52949219 13.51789063 9.05898437 13.03578125 8.57421875 12.5390625 C7.95160156 11.90742187 7.32898438 11.27578125 6.6875 10.625 C6.07261719 9.99851562 5.45773438 9.37203125 4.82421875 8.7265625 C2.91187472 6.81913393 2.91187472 6.81913393 0 5 C-0.1875 2.375 -0.1875 2.375 0 0 Z " fill="#B1A9A9" transform="translate(73,101)"/>
<path d="M0 0 C2.97 0.495 2.97 0.495 6 1 C4.60804085 3.7839183 2.84424221 3.97898997 0 5 C0.33 5.99 0.66 6.98 1 8 C-2.06117568 10.62386487 -2.73173127 11 -7 11 C-7.99 11.495 -7.99 11.495 -9 12 C-8.53256152 7.88654141 -8.11081018 4.88860945 -5 2 C-2.3125 1.75 -2.3125 1.75 0 2 C0 1.34 0 0.68 0 0 Z " fill="#A19C9F" transform="translate(37,99)"/>
<path d="M0 0 C2 2 2 2 2.9375 4.9375 C3.95087179 7.85839516 4.66072393 9.08604685 7 11 C6.01 11 5.02 11 4 11 C3.34 10.34 2.68 9.68 2 9 C-4.83167675 6.51575391 -10.01400366 7.33055234 -17 9 C-14.0163065 5.57563792 -11.4751616 5.42218506 -7 5 C-7 4.34 -7 3.68 -7 3 C-2.25 1.875 -2.25 1.875 0 3 C0 2.01 0 1.02 0 0 Z " fill="#A7988D" transform="translate(49,26)"/>
<path d="M0 0 C4.95 0 9.9 0 15 0 C16.6415049 3.2830098 15.51888624 6.42545033 15 10 C14.34 10 13.68 10 13 10 C12.34 8.02 11.68 6.04 11 4 C10.37351562 4.01160156 9.74703125 4.02320313 9.1015625 4.03515625 C8.28429688 4.04417969 7.46703125 4.05320313 6.625 4.0625 C5.81289063 4.07410156 5.00078125 4.08570313 4.1640625 4.09765625 C2 4 2 4 0 3 C0 2.01 0 1.02 0 0 Z " fill="#65362E" transform="translate(31,156)"/>
<path d="M0 0 C0.33 1.65 0.66 3.3 1 5 C-0.32 5.33 -1.64 5.66 -3 6 C-3 5.34 -3 4.68 -3 4 C-3.66 4 -4.32 4 -5 4 C-5 4.66 -5 5.32 -5 6 C-5.66 6 -6.32 6 -7 6 C-7 6.66 -7 7.32 -7 8 C-7.66 8 -8.32 8 -9 8 C-9.33 8.99 -9.66 9.98 -10 11 C-10.125 3.375 -10.125 3.375 -9 0 C-5.93109813 -1.53445094 -3.29905734 -0.54984289 0 0 Z " fill="#BA7955" transform="translate(21,116)"/>
<path d="M0 0 C1.32 0.66 2.64 1.32 4 2 C4 2.66 4 3.32 4 4 C4.7425 4.103125 5.485 4.20625 6.25 4.3125 C9.17014018 5.04253504 10.73187554 6.06789398 13 8 C9.18105324 9.854917 7.0792614 10.15056091 3 9 C1.8553125 8.7215625 1.8553125 8.7215625 0.6875 8.4375 C0.130625 8.293125 -0.42625 8.14875 -1 8 C-1.04241723 5.66705225 -1.04092937 3.33297433 -1 1 C-0.67 0.67 -0.34 0.34 0 0 Z " fill="#B4B4BC" transform="translate(32,122)"/>
<path d="M0 0 C0.36923077 7.50769231 0.36923077 7.50769231 -1.5 10 C-1.995 10.33 -2.49 10.66 -3 11 C-5.34058637 8.87219421 -6.70700306 6.88437779 -8 4 C-9.65 4.33 -11.3 4.66 -13 5 C-11.69696706 2.39393412 -10.68319019 2.08777981 -8 1 C-5.29556086 0.45911217 -2.75896141 0 0 0 Z " fill="#201F2A" transform="translate(65,136)"/>
<path d="M0 0 C0.33 0.66 0.66 1.32 1 2 C1.99 1.34 2.98 0.68 4 0 C3.67 4.29 3.34 8.58 3 13 C1 12 1 12 0.125 9.5 C-0.72882071 6.81740446 -0.72882071 6.81740446 -3.125 6.1875 C-3.74375 6.125625 -4.3625 6.06375 -5 6 C-5.33 4.35 -5.66 2.7 -6 1 C-4 0 -4 0 0 0 Z " fill="#9D837D" transform="translate(24,69)"/>
<path d="M0 0 C6.39655172 -0.36206897 6.39655172 -0.36206897 8.875 1.125 C10.40430823 3.67384706 10.67470941 6.07238473 11 9 C7.01781501 8.72217314 5.25090158 8.20726652 2.125 5.625 C0 3 0 3 0 0 Z " fill="#B7645A" transform="translate(9,55)"/>
<path d="M0 0 C1.485 0.99 1.485 0.99 3 2 C9.46593851 5.32667851 16.94072945 4.30841473 24 4 C20.52582929 7.8986169 18.33793522 8.80431287 13.2421875 9.171875 C9.70430916 8.90067875 7.69225676 7.20275553 5 5 C4.05125 4.46375 3.1025 3.9275 2.125 3.375 C1.42375 2.92125 0.7225 2.4675 0 2 C0 1.34 0 0.68 0 0 Z " fill="#77504B" transform="translate(42,74)"/>
<path d="M0 0 C1.41791408 0.45445964 2.83428046 0.91374944 4.25 1.375 C5.43335938 1.75785156 5.43335938 1.75785156 6.640625 2.1484375 C8.86627958 2.95173667 10.90931672 3.89711662 13 5 C12.67 6.65 12.34 8.3 12 10 C11.01 10 10.02 10 9 10 C8.443125 9.360625 7.88625 8.72125 7.3125 8.0625 C3.99004172 5.0992264 1.38804275 5.29253618 -3 5 C-2.67 4.01 -2.34 3.02 -2 2 C-1.34 2 -0.68 2 0 2 C0 1.34 0 0.68 0 0 Z " fill="#5E3326" transform="translate(18,39)"/>
<path d="M0 0 C1.98 0 3.96 0 6 0 C7.75210338 4.48976491 8.37076135 8.18010242 8 13 C7.34 13.66 6.68 14.32 6 15 C5.01 14.67 4.02 14.34 3 14 C3 9.71 3 5.42 3 1 C2.01 0.67 1.02 0.34 0 0 Z " fill="#6A6C79" transform="translate(70,130)"/>
<path d="M0 0 C1.2065625 0.0309375 1.2065625 0.0309375 2.4375 0.0625 C1.93146008 2.23124252 1.43766187 4.06217627 0.4375 6.0625 C0.29374578 9.44072416 0.36213652 11.83640955 1.4375 15.0625 C3.0875 15.3925 4.7375 15.7225 6.4375 16.0625 C6.4375 17.0525 6.4375 18.0425 6.4375 19.0625 C1.6875 17.1875 1.6875 17.1875 -0.5625 16.0625 C-1.1953125 13.55859375 -1.1953125 13.55859375 -1.6875 10.5 C-1.93886719 8.98212891 -1.93886719 8.98212891 -2.1953125 7.43359375 C-2.31648438 6.65113281 -2.43765625 5.86867188 -2.5625 5.0625 C-3.5525 5.0625 -4.5425 5.0625 -5.5625 5.0625 C-3.15007962 0.07683121 -3.15007962 0.07683121 0 0 Z " fill="#D7B18F" transform="translate(24.5625,20.9375)"/>
<path d="M0 0 C1.485 0.99 1.485 0.99 3 2 C5.18186947 2.3157994 5.18186947 2.3157994 7.5 2.25 C8.66015625 2.25773437 8.66015625 2.25773437 9.84375 2.265625 C12.29513844 2.12738062 12.29513844 2.12738062 15 0 C15 1.32 15 2.64 15 4 C15.66 4 16.32 4 17 4 C17.33 5.32 17.66 6.64 18 8 C15.61435923 7.42415568 13.33317216 6.77772405 11 6 C9.865625 6.04125 8.73125 6.0825 7.5625 6.125 C4 6 4 6 1.5625 4.6875 C0 3 0 3 0 0 Z " fill="#5B4846" transform="translate(65,62)"/>
<path d="M0 0 C0.33 3.96 0.66 7.92 1 12 C-0.65 12.33 -2.3 12.66 -4 13 C-3.34 12.67 -2.68 12.34 -2 12 C-3.66924071 8.95865509 -3.66924071 8.95865509 -6 8 C-5.74438677 5.6568787 -5.40729228 3.32156597 -5 1 C-3 0 -3 0 0 0 Z " fill="#723A2C" transform="translate(89,113)"/>
<path d="M0 0 C2.73886155 0.02559684 4.40257532 0.30085844 7.0625 1.1875 C6.7325 2.5075 6.4025 3.8275 6.0625 5.1875 C3.0925 5.1875 0.1225 5.1875 -2.9375 5.1875 C-3.2675 5.8475 -3.5975 6.5075 -3.9375 7.1875 C-3.9375 5.8675 -3.9375 4.5475 -3.9375 3.1875 C-4.5975 2.8575 -5.2575 2.5275 -5.9375 2.1875 C-3.9375 0.1875 -3.9375 0.1875 0 0 Z " fill="#632920" transform="translate(86.9375,44.8125)"/>
<path d="M0 0 C1.32 0 2.64 0 4 0 C4 0.66 4 1.32 4 2 C6.31 2.66 8.62 3.32 11 4 C10.89300781 4.59167969 10.78601562 5.18335938 10.67578125 5.79296875 C9.85539719 11.019418 9.85539719 11.019418 11.375 16 C12.8449367 17.87923641 12.8449367 17.87923641 14 19 C15.85287502 19.07226502 17.70833878 19.0838122 19.5625 19.0625 C20.57441406 19.05347656 21.58632813 19.04445313 22.62890625 19.03515625 C23.41136719 19.02355469 24.19382812 19.01195313 25 19 C22.50959058 21.49040942 21.56845643 21.32391014 18.125 21.375 C14.56303656 21.31332098 13.37549719 21.27475404 10.4375 19.125 C8.16278522 15.76237815 7.88573802 13.91243414 7.9375 9.875 C7.94652344 8.96492188 7.95554687 8.05484375 7.96484375 7.1171875 C7.97644531 6.41851562 7.98804688 5.71984375 8 5 C6.68 5 5.36 5 4 5 C1.75 2.5 1.75 2.5 0 0 Z " fill="#534C4F" transform="translate(23,47)"/>
<path d="M0 0 C0.33 0.66 0.66 1.32 1 2 C2.32 2 3.64 2 5 2 C5.33 5.96 5.66 9.92 6 14 C1.06708161 10.30031121 -1.0327909 6.90162729 -3 1 C-2.01 0.67 -1.02 0.34 0 0 Z " fill="#35343D" transform="translate(26,50)"/>
<path d="M0 0 C0.804375 0.433125 0.804375 0.433125 1.625 0.875 C4.35280484 2.16711808 7.12612718 3.08558592 10 4 C9.67 4.66 9.34 5.32 9 6 C7.68 5.67 6.36 5.34 5 5 C4.01 6.485 4.01 6.485 3 8 C3.99 8.33 4.98 8.66 6 9 C4.02 9.66 2.04 10.32 0 11 C0 9.02 0 7.04 0 5 C-0.66 6.32 -1.32 7.64 -2 9 C-2.99 8.67 -3.98 8.34 -5 8 C-5.33 7.01 -5.66 6.02 -6 5 C-5.195625 4.731875 -4.39125 4.46375 -3.5625 4.1875 C-2.716875 3.795625 -1.87125 3.40375 -1 3 C-0.67 2.01 -0.34 1.02 0 0 Z " fill="#DED3C9" transform="translate(59,24)"/>
<path d="M0 0 C1.43861294 0.08746284 2.87597508 0.19565348 4.3125 0.3125 C5.11300781 0.37050781 5.91351563 0.42851562 6.73828125 0.48828125 C9.39104956 1.08847581 10.3867554 1.83485593 12 4 C11.6875 6.1875 11.6875 6.1875 11 8 C10.01 7.34 9.02 6.68 8 6 C8 6.66 8 7.32 8 8 C6.125 7.8125 6.125 7.8125 4 7 C2.875 4.5625 2.875 4.5625 2 2 C1.34 1.34 0.68 0.68 0 0 Z " fill="#C69379" transform="translate(75,156)"/>
<path d="M0 0 C0.33 0.99 0.66 1.98 1 3 C1.66 3 2.32 3 3 3 C3.33 4.65 3.66 6.3 4 8 C0.7 8.66 -2.6 9.32 -6 10 C-5.1875 7.0625 -5.1875 7.0625 -4 4 C-3.01 3.67 -2.02 3.34 -1 3 C-0.67 2.01 -0.34 1.02 0 0 Z " fill="#A47365" transform="translate(30,156)"/>
<path d="M0 0 C2.97 0 5.94 0 9 0 C9.125 2.375 9.125 2.375 9 5 C8.34 5.66 7.68 6.32 7 7 C3.82719649 6.56237193 0.94332389 5.22638495 -2 4 C-1.34 2.68 -0.68 1.36 0 0 Z " fill="#7D4033" transform="translate(70,74)"/>
<path d="M0 0 C0.66 0.33 1.32 0.66 2 1 C2 1.66 2 2.32 2 3 C7.61 3 13.22 3 19 3 C19 3.66 19 4.32 19 5 C12.34362157 6.23839599 5.7528064 6.09139136 -1 6 C-1.33 6.99 -1.66 7.98 -2 9 C-2.25 3.375 -2.25 3.375 0 0 Z " fill="#2F2E36" transform="translate(34,51)"/>
<path d="M0 0 C1.32 0.33 2.64 0.66 4 1 C3.67 2.65 3.34 4.3 3 6 C4.010625 5.34 5.02125 4.68 6.0625 4 C9.78062891 1.84500284 12.68915491 1.64809428 17 2 C16.67 2.66 16.34 3.32 16 4 C13.69 4 11.38 4 9 4 C8.67 5.65 8.34 7.3 8 9 C5.25913944 9.22223194 3.56036279 9.34781139 1.1875 7.875 C-0.49106106 5.22464043 -0.20450238 3.06753576 0 0 Z " fill="#955D41" transform="translate(74,38)"/>
<path d="M0 0 C1.51400391 0.01740234 1.51400391 0.01740234 3.05859375 0.03515625 C4.07050781 0.04417969 5.08242187 0.05320313 6.125 0.0625 C7.29869141 0.07990234 7.29869141 0.07990234 8.49609375 0.09765625 C8.49609375 1.08765625 8.49609375 2.07765625 8.49609375 3.09765625 C3.20378606 6.17457933 3.20378606 6.17457933 -0.37890625 5.78515625 C-1.08015625 5.55828125 -1.78140625 5.33140625 -2.50390625 5.09765625 C-3.06640625 3.16015625 -3.06640625 3.16015625 -3.50390625 1.09765625 C-2.50390625 0.09765625 -2.50390625 0.09765625 0 0 Z " fill="#ECBA91" transform="translate(76.50390625,32.90234375)"/>
<path d="M0 0 C-0.99 0.495 -0.99 0.495 -2 1 C-2 1.66 -2 2.32 -2 3 C-6.455 4.485 -6.455 4.485 -11 6 C-10.67 7.32 -10.34 8.64 -10 10 C-12.64 9.34 -15.28 8.68 -18 8 C-18 7.34 -18 6.68 -18 6 C-17.2575 5.9175 -16.515 5.835 -15.75 5.75 C-12.44300369 4.84809192 -11.31547635 3.46486192 -9 1 C-5.70343918 -1.23315411 -3.79034813 -1.05287448 0 0 Z " fill="#BDB3AD" transform="translate(44,28)"/>
<path d="M0 0 C0.66 0 1.32 0 2 0 C2.144375 1.175625 2.28875 2.35125 2.4375 3.5625 C2.91410176 7.38212272 3.44453544 11.19110019 4 15 C3.4225 15.061875 2.845 15.12375 2.25 15.1875 C-0.88690987 16.32027301 -2.09167504 18.34197595 -4 21 C-3.35929648 16.38693467 -3.35929648 16.38693467 -1.375 14.25 C0.57362299 11.0613442 -0.15666084 8.70686393 -0.7734375 5.12109375 C-1 3 -1 3 0 0 Z " fill="#C8C2C1" transform="translate(32,86)"/>
<path d="M0 0 C0.33 0 0.66 0 1 0 C1 2.64 1 5.28 1 8 C2.32 7.67 3.64 7.34 5 7 C5 8.65 5 10.3 5 12 C1.52674819 13.1577506 -1.36067448 13.06866652 -5 13 C-4.360625 11.96875 -3.72125 10.9375 -3.0625 9.875 C-1.18288629 6.61390342 -0.36873469 3.77953056 0 0 Z " fill="#9F8D83" transform="translate(33,38)"/>
<path d="M0 0 C0.33 1.32 0.66 2.64 1 4 C2.65 2.68 4.3 1.36 6 0 C4.4169423 4.2742558 1.49431596 6.26531794 -2 9 C-2.66 8.34 -3.32 7.68 -4 7 C-4.33 7.66 -4.66 8.32 -5 9 C-5.99 8.67 -6.98 8.34 -8 8 C-7.34 8 -6.68 8 -6 8 C-5.896875 7.236875 -5.79375 6.47375 -5.6875 5.6875 C-4.83195622 2.34310158 -3.70341243 0 0 0 Z " fill="#CAA48F" transform="translate(10,31)"/>
<path d="M0 0 C0.99 0.33 1.98 0.66 3 1 C3 1.66 3 2.32 3 3 C3.66 3 4.32 3 5 3 C5.33 5.31 5.66 7.62 6 10 C5.34 10 4.68 10 4 10 C4 10.66 4 11.32 4 12 C3.01 12 2.02 12 1 12 C0.01751476 7.9472484 -0.08159574 4.16138263 0 0 Z " fill="#E59A63" transform="translate(90,112)"/>
<path d="M0 0 C0.66 0 1.32 0 2 0 C2 0.99 2 1.98 2 3 C2.87011719 3.05607422 2.87011719 3.05607422 3.7578125 3.11328125 C8.78702248 3.5365316 12.62711124 4.26694453 17 7 C17.33 7.66 17.66 8.32 18 9 C13.33333333 8.33333333 8.66666667 7.66666667 4 7 C4 6.34 4 5.68 4 5 C3.01 5 2.02 5 1 5 C0.67 3.35 0.34 1.7 0 0 Z " fill="#7B787E" transform="translate(33,85)"/>
<path d="M0 0 C-0.66 0 -1.32 0 -2 0 C-1.67 0.99 -1.34 1.98 -1 3 C-1.33 3.66 -1.66 4.32 -2 5 C-4.97 5 -7.94 5 -11 5 C-11.33 4.01 -11.66 3.02 -12 2 C-7.86666662 -0.29629632 -4.59061602 -1.53020534 0 0 Z " fill="#9F543C" transform="translate(41,71)"/>
<path d="M0 0 C2.97 0 5.94 0 9 0 C11.27678571 9.10714286 11.27678571 9.10714286 10 13 C7 6.375 7 6.375 7 3 C4.36 3.33 1.72 3.66 -1 4 C-0.67 2.68 -0.34 1.36 0 0 Z " fill="#676569" transform="translate(54,52)"/>
<path d="M0 0 C4.62 0 9.24 0 14 0 C13.34 1.65 12.68 3.3 12 5 C10.68 4.67 9.36 4.34 8 4 C8 3.34 8 2.68 8 2 C5.03 2.66 2.06 3.32 -1 4 C-0.67 2.68 -0.34 1.36 0 0 Z " fill="#AD6050" transform="translate(82,54)"/>
<path d="M0 0 C0 0.66 0 1.32 0 2 C0.99 1.34 1.98 0.68 3 0 C3.99 0 4.98 0 6 0 C6 0.66 6 1.32 6 2 C6.66 2 7.32 2 8 2 C8 2.99 8 3.98 8 5 C6.68 4.67 5.36 4.34 4 4 C3.67 4.66 3.34 5.32 3 6 C2.67 5.34 2.34 4.68 2 4 C1.278125 4.144375 0.55625 4.28875 -0.1875 4.4375 C-4.09375 5.21875 -4.09375 5.21875 -8 6 C-3.375 0 -3.375 0 0 0 Z " fill="#D6CDC7" transform="translate(41,24)"/>
<path d="M0 0 C0.33 0 0.66 0 1 0 C1.5 2.6875 1.5 2.6875 1 6 C-1.80201165 8.47575002 -5.16508611 11 -9 11 C-9 9.02 -9 7.04 -9 5 C-8.236875 4.855625 -7.47375 4.71125 -6.6875 4.5625 C-3.91827092 4.0367406 -3.91827092 4.0367406 -1 3 C-0.67 2.01 -0.34 1.02 0 0 Z " fill="#D2956C" transform="translate(86,33)"/>
<path d="M0 0 C0.33 0 0.66 0 1 0 C0.93993922 1.45947705 0.8511311 2.91779272 0.75 4.375 C0.68039063 5.59316406 0.68039063 5.59316406 0.609375 6.8359375 C0 9 0 9 -2.046875 10.2890625 C-3.01367188 10.64097656 -3.01367188 10.64097656 -4 11 C-4 9.68 -4 8.36 -4 7 C-4.99 6.67 -5.98 6.34 -7 6 C-7.6875 3.9375 -7.6875 3.9375 -8 2 C-5 2 -5 2 -3.3125 3.5 C-2.879375 3.995 -2.44625 4.49 -2 5 C-1.34 3.35 -0.68 1.7 0 0 Z " fill="#C4B3A8" transform="translate(59,28)"/>
<path d="M0 0 C0.66 0.33 1.32 0.66 2 1 C1.67 4.3 1.34 7.6 1 11 C-0.98 11 -2.96 11 -5 11 C-5 9.35 -5 7.7 -5 6 C-3.68 6 -2.36 6 -1 6 C-0.67 4.02 -0.34 2.04 0 0 Z " fill="#817C81" transform="translate(60,100)"/>
<path d="M0 0 C4.42700422 1.39134418 6.99413292 3.47884142 10 7 C10 7.99 10 8.98 10 10 C10.99 10 11.98 10 13 10 C13 11.65 13 13.3 13 15 C12.01 15 11.02 15 10 15 C9.78085938 14.38511719 9.56171875 13.77023438 9.3359375 13.13671875 C7.21065912 7.65071159 7.21065912 7.65071159 2.75 3.9375 C1.8425 3.628125 0.935 3.31875 0 3 C0 2.01 0 1.02 0 0 Z " fill="#D7D3D2" transform="translate(74,98)"/>
<path d="M0 0 C0.28875 0.78375 0.5775 1.5675 0.875 2.375 C1.84912254 5.09671632 1.84912254 5.09671632 4 7 C1.69 7.66 -0.62 8.32 -3 9 C-2.67 7.68 -2.34 6.36 -2 5 C-3.32 5.33 -4.64 5.66 -6 6 C-6 4.35 -6 2.7 -6 1 C-3.92446352 0.4465236 -2.15634036 0 0 0 Z " fill="#C7B2A8" transform="translate(40,40)"/>
<path d="M0 0 C0.33 1.32 0.66 2.64 1 4 C0.360625 4.268125 -0.27875 4.53625 -0.9375 4.8125 C-3.33131686 5.88667752 -3.33131686 5.88667752 -4 9 C-5.32 9 -6.64 9 -8 9 C-8.33 9.66 -8.66 10.32 -9 11 C-10.32 10.34 -11.64 9.68 -13 9 C-13 8.34 -13 7.68 -13 7 C-12.01 7 -11.02 7 -10 7 C-9.67 6.01 -9.34 5.02 -9 4 C-8.01 4.66 -7.02 5.32 -6 6 C-4.02 4.02 -2.04 2.04 0 0 Z " fill="#B27E60" transform="translate(15,33)"/>
<path d="M0 0 C0.66 0.33 1.32 0.66 2 1 C0.68 7.6 -0.64 14.2 -2 21 C-2.33 21 -2.66 21 -3 21 C-3.23191047 14.10710557 -3.11022849 7.6233449 -1 1 C-0.67 0.67 -0.34 0.34 0 0 Z " fill="#636778" transform="translate(32,129)"/>
<path d="M0 0 C1.134375 0.020625 2.26875 0.04125 3.4375 0.0625 C3.125 1.9375 3.125 1.9375 2.4375 4.0625 C-0.79041555 6.2144437 -1.84650809 6.26336443 -5.5625 6.0625 C-4.48849278 0.07874549 -4.48849278 0.07874549 0 0 Z " fill="#D98D7B" transform="translate(85.5625,58.9375)"/>
<path d="M0 0 C2.375 2.5 2.375 2.5 4 5 C3.34 5.66 2.68 6.32 2 7 C1.525625 6.525625 1.05125 6.05125 0.5625 5.5625 C-3.11644797 3.31923904 -6.7621112 3.26260422 -11 3 C-10 1 -10 1 -8.3125 0.375 C-5.36301672 -0.10329459 -2.98525875 -0.37315734 0 0 Z " fill="#765A53" transform="translate(50,46)"/>
<path d="M0 0 C0.33 0.66 0.66 1.32 1 2 C1.99 2 2.98 2 4 2 C4 2.66 4 3.32 4 4 C6.31 4 8.62 4 11 4 C11.33 4.66 11.66 5.32 12 6 C7.25 7.125 7.25 7.125 5 6 C4.67 8.31 4.34 10.62 4 13 C3.67 13 3.34 13 3 13 C2.49487756 11.39743892 1.99608373 9.79288208 1.5 8.1875 C1.2215625 7.29417969 0.943125 6.40085937 0.65625 5.48046875 C0 3 0 3 0 0 Z " fill="#AAA8AD" transform="translate(33,88)"/>
<path d="M0 0 C0.99 0.33 1.98 0.66 3 1 C4.6875 4.5625 4.6875 4.5625 6 8 C5.34 8 4.68 8 4 8 C4 8.66 4 9.32 4 10 C2.68 9.67 1.36 9.34 0 9 C-0.33 7.35 -0.66 5.7 -1 4 C-0.34 3.67 0.32 3.34 1 3 C0.67 2.01 0.34 1.02 0 0 Z " fill="#EFEEEC" transform="translate(69,85)"/>
<path d="M0 0 C2.25 -0.3125 2.25 -0.3125 5 0 C7.1875 2.4375 7.1875 2.4375 9 5 C9.66 5.33 10.32 5.66 11 6 C10.67 7.32 10.34 8.64 10 10 C8.1875 9.875 8.1875 9.875 6 9 C4.93224776 7.03533587 3.93446535 5.03144641 3 3 C1.43897509 1.18445841 1.43897509 1.18445841 0 0 Z " fill="#6C2820" transform="translate(15,52)"/>
<path d="M0 0 C0.21398437 0.64453125 0.42796875 1.2890625 0.6484375 1.953125 C1.8473523 4.27839115 1.8473523 4.27839115 4.6015625 4.609375 C5.59929687 4.65578125 6.59703125 4.7021875 7.625 4.75 C9.12933594 4.83507813 9.12933594 4.83507813 10.6640625 4.921875 C11.43492188 4.94765625 12.20578125 4.9734375 13 5 C13.33 3.68 13.66 2.36 14 1 C15.61949011 3.57213134 16.04408751 4.67669159 15.625 7.75 C15.315625 8.86375 15.315625 8.86375 15 10 C14.42958984 9.27683594 14.42958984 9.27683594 13.84765625 8.5390625 C11.37154533 6.47650922 9.62424623 6.53624681 6.4375 6.375 C1.16143498 6.08071749 1.16143498 6.08071749 -1 5 C-0.67 3.35 -0.34 1.7 0 0 Z " fill="#343039" transform="translate(64,51)"/>
<path d="M0 0 C4.875 4.625 4.875 4.625 6 8 C6.03954234 10.33299825 6.04401732 12.66708189 6 15 C4 12 4 12 4 9 C2.68 8.67 1.36 8.34 0 8 C0 5.36 0 2.72 0 0 Z " fill="#DBBAA0" transform="translate(94,31)"/>
<path d="M0 0 C2.96175123 0.61277612 4.38058783 1.25372522 7 3 C6.49396008 5.16874252 6.00016187 6.99967627 5 9 C3.68 9 2.36 9 1 9 C0.875 3.25 0.875 3.25 2 1 C1.34 0.67 0.68 0.34 0 0 Z " fill="#E4AF8F" transform="translate(63,65)"/>
<path d="M0 0 C1.32 0.99 2.64 1.98 4 3 C4.66 2.34 5.32 1.68 6 1 C5.63803085 3.67857172 5.26012724 5.60980914 3.75 7.875 C2 9 2 9 -0.6875 8.6875 C-1.450625 8.460625 -2.21375 8.23375 -3 8 C-3.33 7.01 -3.66 6.02 -4 5 C-1.525 5.495 -1.525 5.495 1 6 C0.67 4.02 0.34 2.04 0 0 Z " fill="#944F43" transform="translate(19,58)"/>
<path d="M0 0 C3.83146596 1.56096761 6.28148054 3.91411305 9 7 C9.64453125 9.1640625 9.64453125 9.1640625 10 11 C9.39671875 10.59007813 8.7934375 10.18015625 8.171875 9.7578125 C7.37265625 9.21898438 6.5734375 8.68015625 5.75 8.125 C4.96109375 7.59132813 4.1721875 7.05765625 3.359375 6.5078125 C1.28444308 5.18177985 -0.77614972 4.05071825 -3 3 C-2.01 2.67 -1.02 2.34 0 2 C0 1.34 0 0.68 0 0 Z " fill="#E1DEDC" transform="translate(73,93)"/>
<path d="M0 0 C1.22589844 0.01353516 1.22589844 0.01353516 2.4765625 0.02734375 C3.41628906 0.04474609 3.41628906 0.04474609 4.375 0.0625 C1.71288628 1.43829827 -0.68796616 2.43313561 -3.625 3.0625 C-0.86276722 5.82473278 1.58206617 5.64106291 5.375 6.0625 C5.705 5.4025 6.035 4.7425 6.375 4.0625 C6.705 5.0525 7.035 6.0425 7.375 7.0625 C3.415 7.0625 -0.545 7.0625 -4.625 7.0625 C-5.285 5.0825 -5.945 3.1025 -6.625 1.0625 C-4.21954362 -0.14022819 -2.67503047 -0.03821472 0 0 Z " fill="#8F4931" transform="translate(33.625,69.9375)"/>
<path d="M0 0 C2.33944736 0.28730055 4.6739143 0.61936779 7 1 C7 1.99 7 2.98 7 4 C2.48281619 5.36884358 -0.58774263 4.47075246 -5 3 C-4.360625 2.690625 -3.72125 2.38125 -3.0625 2.0625 C-1.06389179 1.1654837 -1.06389179 1.1654837 0 0 Z " fill="#61372E" transform="translate(42,78)"/>
<path d="M0 0 C7.38461538 -0.36923077 7.38461538 -0.36923077 10.5 1.5 C10.995 1.995 11.49 2.49 12 3 C11.67 3.99 11.34 4.98 11 6 C11 5.34 11 4.68 11 4 C8.03 3.67 5.06 3.34 2 3 C1.67 3.66 1.34 4.32 1 5 C0.67 3.35 0.34 1.7 0 0 Z " fill="#95443E" transform="translate(7,52)"/>
<path d="M0 0 C2.05859375 -0.36328125 2.05859375 -0.36328125 4.4375 -0.3125 C5.21996094 -0.30863281 6.00242187 -0.30476563 6.80859375 -0.30078125 C9 0 9 0 12 2 C11.67 2.66 11.34 3.32 11 4 C6.71 3.67 2.42 3.34 -2 3 C-1.34 2.01 -0.68 1.02 0 0 Z " fill="#B97E5E" transform="translate(14,44)"/>
<path d="M0 0 C1.65 0 3.3 0 5 0 C5 2.31 5 4.62 5 7 C3.35 7 1.7 7 0 7 C0 4.69 0 2.38 0 0 Z " fill="#7D7D86" transform="translate(56,112)"/>
<path d="M0 0 C4.52615993 3.67832017 8.39424999 7.41086363 12 12 C11.01 12.33 10.02 12.66 9 13 C8.51789063 12.50628906 8.03578125 12.01257813 7.5390625 11.50390625 C6.90742187 10.86324219 6.27578125 10.22257812 5.625 9.5625 C4.99851562 8.92441406 4.37203125 8.28632812 3.7265625 7.62890625 C2.08276939 5.92117824 2.08276939 5.92117824 0 5 C0 3.35 0 1.7 0 0 Z " fill="#858082" transform="translate(74,102)"/>
<path d="M0 0 C0 1.65 0 3.3 0 5 C-3.68754757 4.50168276 -5.60490662 3.89932357 -8 1 C-4.93251126 -0.86240388 -3.40254489 -1.2151946 0 0 Z " fill="#CD957F" transform="translate(60,96)"/>
<path d="M0 0 C-0.99 0.495 -0.99 0.495 -2 1 C-1.67 1.99 -1.34 2.98 -1 4 C-4.34373475 3.44271087 -7.03312999 2.64826111 -10 1 C-10 0.34 -10 -0.32 -10 -1 C-5.92224809 -1.9267618 -3.57818963 -2.33958553 0 0 Z " fill="#D48559" transform="translate(80,69)"/>
<path d="M0 0 C0.66 0 1.32 0 2 0 C2.04898438 0.71027344 2.09796875 1.42054688 2.1484375 2.15234375 C2.22320312 3.07144531 2.29796875 3.99054688 2.375 4.9375 C2.44460937 5.85402344 2.51421875 6.77054688 2.5859375 7.71484375 C2.72257812 8.46894531 2.85921875 9.22304687 3 10 C3.66 10.33 4.32 10.66 5 11 C2.125 11.625 2.125 11.625 -1 12 C-1.66 11.34 -2.32 10.68 -3 10 C-1.68 8.68 -0.36 7.36 1 6 C0.67 5.67 0.34 5.34 0 5 C-0.04063832 3.33382885 -0.042721 1.66611905 0 0 Z " fill="#272B37" transform="translate(65,141)"/>
<path d="M0 0 C-0.185625 0.556875 -0.37125 1.11375 -0.5625 1.6875 C-1.07551165 4.399133 -0.6640724 6.34371039 0 9 C-2.4375 7.8125 -2.4375 7.8125 -5 6 C-5.8125 3.3125 -5.8125 3.3125 -6 1 C-4 0 -4 0 0 0 Z " fill="#8B5949" transform="translate(27,125)"/>
<path d="M0 0 C1.32 0.33 2.64 0.66 4 1 C3.6189482 3.76262553 3.16402868 4.84143894 1.125 6.8125 C0.42375 7.204375 -0.2775 7.59625 -1 8 C-1.99 7.67 -2.98 7.34 -4 7 C-3.67 6.01 -3.34 5.02 -3 4 C-2.01 4 -1.02 4 0 4 C0 2.68 0 1.36 0 0 Z " fill="#6A372D" transform="translate(54,86)"/>
<path d="M0 0 C1.32 0 2.64 0 4 0 C4.66 1.98 5.32 3.96 6 6 C3.3333581 7.33332095 1.83319697 6.67102033 -1 6 C-1.042721 4.33388095 -1.04063832 2.66617115 -1 1 C-0.67 0.67 -0.34 0.34 0 0 Z " fill="#DCAE91" transform="translate(56,57)"/>
<path d="M0 0 C0.99 0 1.98 0 3 0 C3 0.66 3 1.32 3 2 C3.66 2 4.32 2 5 2 C5 2.66 5 3.32 5 4 C5.99 3.67 6.98 3.34 8 3 C8 3.99 8 4.98 8 6 C8.66 6.33 9.32 6.66 10 7 C6.33924624 7.3327958 4.60499012 7.46170299 1.625 5.1875 C0 3 0 3 0 0 Z " fill="#211B21" transform="translate(64,58)"/>
<path d="M0 0 C0.99 0.33 1.98 0.66 3 1 C3.33 4.63 3.66 8.26 4 12 C1 10 1 10 0.3125 6.875 C0.209375 5.92625 0.10625 4.9775 0 4 C-0.99 4 -1.98 4 -3 4 C-2.67 3.01 -2.34 2.02 -2 1 C-1.34 0.67 -0.68 0.34 0 0 Z " fill="#CF9469" transform="translate(20,25)"/>
<path d="M0 0 C1.32 0 2.64 0 4 0 C4.33 0.66 4.66 1.32 5 2 C6.670625 2.4640625 6.670625 2.4640625 8.375 2.9375 C11.86802723 3.96131833 12.72436848 4.43816943 15 7 C13.20767663 6.69128878 11.41615679 6.37790936 9.625 6.0625 C8.62726562 5.88847656 7.62953125 5.71445313 6.6015625 5.53515625 C4 5 4 5 2 4 C2 3.01 2 2.02 2 1 C1.34 0.67 0.68 0.34 0 0 Z " fill="#554F55" transform="translate(33,84)"/>
<path d="M0 0 C1.96035175 0.44962196 3.91824309 0.90998248 5.875 1.375 C7.51082031 1.75785156 7.51082031 1.75785156 9.1796875 2.1484375 C12 3 12 3 14 5 C14.125 7.625 14.125 7.625 14 10 C11 6.25 11 6.25 11 4 C10.37351562 4.01160156 9.74703125 4.02320313 9.1015625 4.03515625 C8.28429688 4.04417969 7.46703125 4.05320313 6.625 4.0625 C5.81289063 4.07410156 5.00078125 4.08570313 4.1640625 4.09765625 C2 4 2 4 0 3 C0 2.01 0 1.02 0 0 Z " fill="#9B4D2F" transform="translate(31,156)"/>
<path d="M0 0 C2.10409639 -0.02701408 4.20829178 -0.04640223 6.3125 -0.0625 C7.48425781 -0.07410156 8.65601563 -0.08570313 9.86328125 -0.09765625 C13 0 13 0 16 1 C16 1.66 16 2.32 16 3 C11.85023673 4.18564665 9.89271375 3.70899628 6 2 C4.0075675 1.62406934 2.0081326 1.28020455 0 1 C0 0.67 0 0.34 0 0 Z " fill="#43404B" transform="translate(38,51)"/>
<path d="M0 0 C7.75 -0.125 7.75 -0.125 10 1 C10 1.66 10 2.32 10 3 C4.06 3.495 4.06 3.495 -2 4 C-1.34 2.68 -0.68 1.36 0 0 Z " fill="#CA916B" transform="translate(83,42)"/>
<path d="M0 0 C0.66 0.33 1.32 0.66 2 1 C2.4140625 3.06640625 2.4140625 3.06640625 2.625 5.5625 C2.69976562 6.38878906 2.77453125 7.21507812 2.8515625 8.06640625 C2.90054688 8.70449219 2.94953125 9.34257812 3 10 C2.01 10.495 2.01 10.495 1 11 C0.5875 10.05125 0.175 9.1025 -0.25 8.125 C-2.0040131 4.99283376 -2.70851757 4.13499394 -6 3 C-5.01 2.67 -4.02 2.34 -3 2 C-2.34 2.33 -1.68 2.66 -1 3 C-0.67 2.01 -0.34 1.02 0 0 Z " fill="#D9D0CA" transform="translate(50,19)"/>
<path d="M0 0 C0.33 0 0.66 0 1 0 C1 1.98 1 3.96 1 6 C1.99 6 2.98 6 4 6 C4.2475 6.78375 4.495 7.5675 4.75 8.375 C6.15389099 11.32317108 7.00675737 11.9024777 10 13 C8.00045254 13.04254356 5.99958364 13.04080783 4 13 C3 12 3 12 2.9375 9.4375 C2.958125 8.633125 2.97875 7.82875 3 7 C1.35 7 -0.3 7 -2 7 C-1.34 4.69 -0.68 2.38 0 0 Z " fill="#CD987F" transform="translate(54,59)"/>
<path d="M0 0 C1.74627478 2.61941217 2.38722388 4.03824877 3 7 C2.01 7.66 1.02 8.32 0 9 C0 8.01 0 7.02 0 6 C-1.65 5.67 -3.3 5.34 -5 5 C-3.35 3.35 -1.7 1.7 0 0 Z " fill="#633830" transform="translate(24,63)"/>
<path d="M0 0 C6.75 -0.125 6.75 -0.125 9 1 C9 1.99 9 2.98 9 4 C5.7 3.67 2.4 3.34 -1 3 C-0.67 2.01 -0.34 1.02 0 0 Z " fill="#74747B" transform="translate(67,50)"/>
<path d="M0 0 C7.97810934 0.58273043 7.97810934 0.58273043 10.75390625 3.58984375 C11.50390625 6.15234375 11.50390625 6.15234375 10.50390625 8.15234375 C10.13652344 7.518125 9.76914062 6.88390625 9.390625 6.23046875 C6.85920796 3.44224128 5.00389428 3.37814866 1.31640625 2.90234375 C0.22972656 2.7528125 -0.85695313 2.60328125 -1.9765625 2.44921875 C-3.22373047 2.30226562 -3.22373047 2.30226562 -4.49609375 2.15234375 C-2.49609375 0.15234375 -2.49609375 0.15234375 0 0 Z " fill="#57201C" transform="translate(12.49609375,48.84765625)"/>
<path d="M0 0 C2.9375 0.75 2.9375 0.75 6 2 C6.33 3.32 6.66 4.64 7 6 C2.545 5.01 2.545 5.01 -2 4 C-1.34 2.68 -0.68 1.36 0 0 Z " fill="#C2B3A7" transform="translate(64,28)"/>
<path d="M0 0 C7.42857143 -0.28571429 7.42857143 -0.28571429 11 2 C11 3.98 11 5.96 11 8 C10.01 8.33 9.02 8.66 8 9 C8 7.02 8 5.04 8 3 C5.03 2.67 2.06 2.34 -1 2 C-0.67 1.34 -0.34 0.68 0 0 Z " fill="#9A6149" transform="translate(13,114)"/>
<path d="M0 0 C1.75 1.75 1.75 1.75 3 4 C2.6875 6.25 2.6875 6.25 2 8 C1.21625 7.360625 0.4325 6.72125 -0.375 6.0625 C-2.79539281 4.01857687 -2.79539281 4.01857687 -5 3 C-5 2.34 -5 1.68 -5 1 C-3 0 -3 0 0 0 Z " fill="#DFDCDD" transform="translate(50,98)"/>
<path d="M0 0 C5.75 -0.125 5.75 -0.125 8 1 C8 1.99 8 2.98 8 4 C6.25 4.6875 6.25 4.6875 4 5 C1.75 3.6875 1.75 3.6875 0 2 C0 1.34 0 0.68 0 0 Z " fill="#2F1B1B" transform="translate(43,85)"/>
<path d="M0 0 C1.36511719 0.29197266 1.36511719 0.29197266 2.7578125 0.58984375 C3.45648438 0.74582031 4.15515625 0.90179688 4.875 1.0625 C3.555 1.3925 2.235 1.7225 0.875 2.0625 C0.875 2.7225 0.875 3.3825 0.875 4.0625 C-0.775 4.0625 -2.425 4.0625 -4.125 4.0625 C-4.455 3.0725 -4.785 2.0825 -5.125 1.0625 C-5.785 0.7325 -6.445 0.4025 -7.125 0.0625 C-4.4030754 -1.2984623 -2.9418043 -0.64116248 0 0 Z " fill="#412B2A" transform="translate(42.125,82.9375)"/>
<path d="M0 0 C0.99 0.495 0.99 0.495 2 1 C2.73075648 3.3140622 3.40138258 5.64828869 4 8 C4.33 7.01 4.66 6.02 5 5 C5.66 5.33 6.32 5.66 7 6 C5.515 8.475 5.515 8.475 4 11 C2.68 10.67 1.36 10.34 0 10 C0.33 9.34 0.66 8.68 1 8 C0.90276549 6.00978479 0.90276549 6.00978479 0.5625 3.875 C0.376875 2.59625 0.19125 1.3175 0 0 Z " fill="#E3DAD2" transform="translate(53,18)"/>
<path d="M0 0 C-0.33 0.66 -0.66 1.32 -1 2 C-1.99 1.67 -2.98 1.34 -4 1 C-4 1.99 -4 2.98 -4 4 C-4.66 4 -5.32 4 -6 4 C-6 4.99 -6 5.98 -6 7 C-5.01 7.33 -4.02 7.66 -3 8 C-3.99 8.495 -3.99 8.495 -5 9 C-5.99 8.34 -6.98 7.68 -8 7 C-8.1875 3.875 -8.1875 3.875 -8 1 C-5.07175348 0.02391783 -3.04386724 -0.08226668 0 0 Z " fill="#804634" transform="translate(21,125)"/>
<path d="M0 0 C0.33 0.66 0.66 1.32 1 2 C0.67 2.66 0.34 3.32 0 4 C-0.66 4 -1.32 4 -2 4 C-2.226875 4.70125 -2.45375 5.4025 -2.6875 6.125 C-4.31656867 9.69343613 -6.40640731 12.06514511 -9 15 C-9 10.98763758 -7.45029655 9.55593108 -5.0625 6.375 C-4.33160156 5.39273438 -3.60070312 4.41046875 -2.84765625 3.3984375 C-1 1 -1 1 0 0 Z " fill="#F4F5F9" transform="translate(25,94)"/>
<path d="M0 0 C1.010625 0.309375 2.02125 0.61875 3.0625 0.9375 C6.6731369 1.97647919 10.26874647 2.54311181 14 3 C14 3.33 14 3.66 14 4 C9.05 4 4.1 4 -1 4 C-1.33 3.34 -1.66 2.68 -2 2 C-1.34 2 -0.68 2 0 2 C0 1.34 0 0.68 0 0 Z " fill="#402C2A" transform="translate(27,166)"/>
<path d="M0 0 C0.33 1.32 0.66 2.64 1 4 C1.66 4 2.32 4 3 4 C3.33 5.65 3.66 7.3 4 9 C1.69 9 -0.62 9 -3 9 C-2.01 6.03 -1.02 3.06 0 0 Z " fill="#C38D72" transform="translate(24,117)"/>
<path d="M0 0 C0.33 0 0.66 0 1 0 C1.33 2.64 1.66 5.28 2 8 C4.97 8.495 4.97 8.495 8 9 C8 9.66 8 10.32 8 11 C5.36 10.67 2.72 10.34 0 10 C0 6.7 0 3.4 0 0 Z " fill="#6C5853" transform="translate(75,39)"/>
<path d="M0 0 C1.32 0.33 2.64 0.66 4 1 C3.67 1.99 3.34 2.98 3 4 C2.34 3.67 1.68 3.34 1 3 C1 3.66 1 4.32 1 5 C-0.875 7.125 -0.875 7.125 -3 9 C-3.66 9 -4.32 9 -5 9 C-4.67 7.68 -4.34 6.36 -4 5 C-2.68 4.67 -1.36 4.34 0 4 C0 2.68 0 1.36 0 0 Z " fill="#804A37" transform="translate(17,36)"/>
<path d="M0 0 C0.66 0 1.32 0 2 0 C2.66 1.65 3.32 3.3 4 5 C3.01 5 2.02 5 1 5 C1.66 6.98 2.32 8.96 3 11 C1.35 11 -0.3 11 -2 11 C-1.34 7.37 -0.68 3.74 0 0 Z " fill="#CFC9CC" transform="translate(67,84)"/>
<path d="M0 0 C0.99 0.33 1.98 0.66 3 1 C3.33 1.99 3.66 2.98 4 4 C3 5 3 5 -0.5625 5.0625 C-1.696875 5.041875 -2.83125 5.02125 -4 5 C-2.25 1.125 -2.25 1.125 0 0 Z " fill="#6C3528" transform="translate(70,77)"/>
<path d="M0 0 C0.33 1.32 0.66 2.64 1 4 C0.01 4.495 0.01 4.495 -1 5 C-1 4.34 -1 3.68 -1 3 C-3.64 3.33 -6.28 3.66 -9 4 C-8.67 3.01 -8.34 2.02 -8 1 C-5.17884816 -0.07009208 -3.09455459 0 0 0 Z " fill="#C67460" transform="translate(90,56)"/>
<path d="M0 0 C1.32 0 2.64 0 4 0 C4.33 1.32 4.66 2.64 5 4 C3.02 4.33 1.04 4.66 -1 5 C-0.67 3.35 -0.34 1.7 0 0 Z " fill="#D59166" transform="translate(37,161)"/>
<path d="M0 0 C2.64 0 5.28 0 8 0 C8 0.33 8 0.66 8 1 C6.35 1 4.7 1 3 1 C3.66 3.31 4.32 5.62 5 8 C4.01 7.67 3.02 7.34 2 7 C2 6.34 2 5.68 2 5 C1.34 5 0.68 5 0 5 C0 3.35 0 1.7 0 0 Z " fill="#753B2A" transform="translate(67,155)"/>
<path d="M0 0 C1.98 0.99 1.98 0.99 4 2 C3.42415568 4.38564077 2.77772405 6.66682784 2 9 C1.34 9 0.68 9 0 9 C0 6.03 0 3.06 0 0 Z " fill="#333642" transform="translate(47,137)"/>
<path d="M0 0 C1.51400391 0.01740234 1.51400391 0.01740234 3.05859375 0.03515625 C4.07050781 0.04417969 5.08242187 0.05320312 6.125 0.0625 C7.29869141 0.07990234 7.29869141 0.07990234 8.49609375 0.09765625 C5.93063435 2.66311565 4.01922707 2.63811712 0.49609375 3.09765625 C0.16609375 5.40765625 -0.16390625 7.71765625 -0.50390625 10.09765625 C-0.83390625 10.09765625 -1.16390625 10.09765625 -1.50390625 10.09765625 C-1.86506671 8.62018165 -2.21765673 7.1406095 -2.56640625 5.66015625 C-2.76363281 4.83644531 -2.96085937 4.01273437 -3.1640625 3.1640625 C-3.33228516 2.14119141 -3.33228516 2.14119141 -3.50390625 1.09765625 C-2.50390625 0.09765625 -2.50390625 0.09765625 0 0 Z " fill="#725553" transform="translate(67.50390625,80.90234375)"/>
<path d="M0 0 C-1.5 2 -1.5 2 -4 4 C-6.75871627 4.35800135 -9.20097524 4.18660165 -12 4 C-11.1028125 3.566875 -11.1028125 3.566875 -10.1875 3.125 C-3.7201087 -0.20108696 -3.7201087 -0.20108696 0 0 Z " fill="#8C4640" transform="translate(66,78)"/>
<path d="M0 0 C2.97 0 5.94 0 9 0 C9 1.32 9 2.64 9 4 C7.68528432 3.71848913 6.37324233 3.42446661 5.0625 3.125 C3.96615234 2.88136719 3.96615234 2.88136719 2.84765625 2.6328125 C1 2 1 2 0 0 Z " fill="#A75538" transform="translate(70,74)"/>
<path d="M0 0 C2.97 0 5.94 0 9 0 C9 1.32 9 2.64 9 4 C5.87709365 3.51421457 3.00419641 3.0013988 0 2 C0 1.34 0 0.68 0 0 Z " fill="#A66F52" transform="translate(2,42)"/>
<path d="M0 0 C0.66 0.99 1.32 1.98 2 3 C-1.90028225 5.60018816 -5.47434569 5.15085514 -10 5 C-10 4.34 -10 3.68 -10 3 C-9.36191406 2.95101562 -8.72382812 2.90203125 -8.06640625 2.8515625 C-7.24011719 2.77679688 -6.41382812 2.70203125 -5.5625 2.625 C-4.73878906 2.55539063 -3.91507812 2.48578125 -3.06640625 2.4140625 C-2.38449219 2.27742188 -1.70257813 2.14078125 -1 2 C-0.67 1.34 -0.34 0.68 0 0 Z " fill="#863A2F" transform="translate(94,47)"/>
<path d="M0 0 C0.99 0 1.98 0 3 0 C7 4.34285714 7 4.34285714 7 7 C7.99 7.33 8.98 7.66 10 8 C8.68 8.33 7.36 8.66 6 9 C5.566875 8.21625 5.13375 7.4325 4.6875 6.625 C3.10779753 3.78301625 3.10779753 3.78301625 0 2 C0 1.34 0 0.68 0 0 Z " fill="#F7F4F5" transform="translate(51,13)"/>
<path d="M0 0 C2.0625 0.4375 2.0625 0.4375 4 1 C4 2.65 4 4.3 4 6 C2.68 5.67 1.36 5.34 0 5 C-0.5625 3.0625 -0.5625 3.0625 -1 1 C-0.67 0.67 -0.34 0.34 0 0 Z " fill="#A65B3F" transform="translate(74,159)"/>
<path d="M0 0 C0.33 0.66 0.66 1.32 1 2 C2.65 2 4.3 2 6 2 C6 2.99 6 3.98 6 5 C4.02 5.33 2.04 5.66 0 6 C0 4.02 0 2.04 0 0 Z " fill="#7E8088" transform="translate(55,119)"/>
<path d="M0 0 C0.99 0 1.98 0 3 0 C1.515 5.445 1.515 5.445 0 11 C-0.33 11 -0.66 11 -1 11 C-1.125 3.375 -1.125 3.375 0 0 Z " fill="#C19B8A" transform="translate(12,116)"/>
<path d="M0 0 C0.33 1.65 0.66 3.3 1 5 C-0.32 5.99 -1.64 6.98 -3 8 C-3.33 5.69 -3.66 3.38 -4 1 C-2 0 -2 0 0 0 Z " fill="#AEABAF" transform="translate(40,102)"/>
<path d="M0 0 C0.33 0.66 0.66 1.32 1 2 C1.66 2.33 2.32 2.66 3 3 C0.69 5.31 -1.62 7.62 -4 10 C-4 5.75354935 -2.18249194 3.61475228 0 0 Z " fill="#E0E0E2" transform="translate(28,93)"/>
<path d="M0 0 C0.33 0.99 0.66 1.98 1 3 C-3.455 4.485 -3.455 4.485 -8 6 C-3.375 0 -3.375 0 0 0 Z " fill="#E0DCDA" transform="translate(41,24)"/>
<path d="M0 0 C1.32 0.66 2.64 1.32 4 2 C4 2.66 4 3.32 4 4 C1.36 4 -1.28 4 -4 4 C-3.67 3.01 -3.34 2.02 -3 1 C-2.01 1.33 -1.02 1.66 0 2 C0 1.34 0 0.68 0 0 Z " fill="#7F5042" transform="translate(83,162)"/>
<path d="M0 0 C5.53846154 -0.36923077 5.53846154 -0.36923077 7.875 1.5 C8.24625 1.995 8.6175 2.49 9 3 C8.01 3 7.02 3 6 3 C5.34 4.32 4.68 5.64 4 7 C3.566875 5.824375 3.566875 5.824375 3.125 4.625 C2.15087746 1.90328368 2.15087746 1.90328368 0 0 Z " fill="#AC725A" transform="translate(75,156)"/>
<path d="M0 0 C2.475 0.495 2.475 0.495 5 1 C5.66 2.98 6.32 4.96 7 7 C5.68 7 4.36 7 3 7 C3 5.68 3 4.36 3 3 C2.34 3 1.68 3 1 3 C0.67 2.01 0.34 1.02 0 0 Z " fill="#6B2E1F" transform="translate(17,126)"/>
<path d="M0 0 C0.99 0 1.98 0 3 0 C2.25 6.75 2.25 6.75 0 9 C-1.53445094 5.93109813 -0.54984289 3.29905734 0 0 Z " fill="#CAC3C3" transform="translate(25,109)"/>
<path d="M0 0 C0.66 0.33 1.32 0.66 2 1 C1.2884375 1.8353125 1.2884375 1.8353125 0.5625 2.6875 C-1.12395996 5.18346074 -1.58953107 7.0446237 -2 10 C-2.66 10 -3.32 10 -4 10 C-4.25 7.25 -4.25 7.25 -4 4 C-2 1.625 -2 1.625 0 0 Z " fill="#D2CDCA" transform="translate(30,99)"/>
<path d="M0 0 C1.32 0 2.64 0 4 0 C4.33 0.99 4.66 1.98 5 3 C4.34 3.66 3.68 4.32 3 5 C0.875 4.625 0.875 4.625 -1 4 C-0.67 2.68 -0.34 1.36 0 0 Z " fill="#854A39" transform="translate(58,86)"/>
<path d="M0 0 C0.33 0.66 0.66 1.32 1 2 C1.99 2 2.98 2 4 2 C4.33 3.32 4.66 4.64 5 6 C2.03 5.67 -0.94 5.34 -4 5 C-2.68 3.35 -1.36 1.7 0 0 Z " fill="#7D4233" transform="translate(51,64)"/>
<path d="M0 0 C1.32 0 2.64 0 4 0 C3.67 1.65 3.34 3.3 3 5 C0.69 5.33 -1.62 5.66 -4 6 C-3.34 5.34 -2.68 4.68 -2 4 C-1.01 4 -0.02 4 1 4 C0.67 2.68 0.34 1.36 0 0 Z " fill="#A5684A" transform="translate(33,160)"/>
<path d="M0 0 C4.455 0.99 4.455 0.99 9 2 C7 4 7 4 4.375 4.125 C3.59125 4.08375 2.8075 4.0425 2 4 C1.34 2.68 0.68 1.36 0 0 Z " fill="#3F2A2D" transform="translate(60,152)"/>
<path d="M0 0 C3 1 3 1 5 3 C4.34 3.66 3.68 4.32 3 5 C0.375 4.625 0.375 4.625 -2 4 C-1.34 2.68 -0.68 1.36 0 0 Z " fill="#8D594B" transform="translate(84,124)"/>
<path d="M0 0 C2.375 0.25 2.375 0.25 5 1 C6.3125 3.0625 6.3125 3.0625 7 5 C4.03 4.505 4.03 4.505 1 4 C0.67 2.68 0.34 1.36 0 0 Z " fill="#C17464" transform="translate(13,59)"/>
<path d="M0 0 C1.65 0 3.3 0 5 0 C5 1.32 5 2.64 5 4 C3.35 4.33 1.7 4.66 0 5 C0 3.35 0 1.7 0 0 Z " fill="#B0A199" transform="translate(34,41)"/>
<path d="M0 0 C4.875 4.625 4.875 4.625 6 8 C5.1646875 7.566875 5.1646875 7.566875 4.3125 7.125 C1.91505355 5.9586747 -0.51596939 4.9660119 -3 4 C-3 3.34 -3 2.68 -3 2 C-2.01 2 -1.02 2 0 2 C0 1.34 0 0.68 0 0 Z " fill="#938175" transform="translate(50,30)"/>
<path d="M0 0 C0.6875 1.6875 0.6875 1.6875 1 4 C-0.4375 6.75 -0.4375 6.75 -2 9 C-2.99 8.67 -3.98 8.34 -5 8 C-5.33 7.01 -5.66 6.02 -6 5 C-5.195625 4.731875 -4.39125 4.46375 -3.5625 4.1875 C-2.716875 3.795625 -1.87125 3.40375 -1 3 C-0.67 2.01 -0.34 1.02 0 0 Z " fill="#D8CAC1" transform="translate(59,24)"/>
<path d="M0 0 C0.12375 0.639375 0.2475 1.27875 0.375 1.9375 C0.684375 2.9584375 0.684375 2.9584375 1 4 C1.66 4.33 2.32 4.66 3 5 C3 5.66 3 6.32 3 7 C1.35 6.67 -0.3 6.34 -2 6 C-2 4.68 -2 3.36 -2 2 C-2.66 1.67 -3.32 1.34 -4 1 C-2 0 -2 0 0 0 Z " fill="#F8F6F5" transform="translate(65,19)"/>
<path d="M0 0 C1.98 0.66 3.96 1.32 6 2 C6 3.32 6 4.64 6 6 C5.01 6.33 4.02 6.66 3 7 C3 5.35 3 3.7 3 2 C2.01 2 1.02 2 0 2 C0 1.34 0 0.68 0 0 Z " fill="#CC784C" transform="translate(16,115)"/>
<path d="M0 0 C1.32 0 2.64 0 4 0 C4.33 1.98 4.66 3.96 5 6 C3.68 5.67 2.36 5.34 1 5 C0.67 3.35 0.34 1.7 0 0 Z " fill="#ACA7A6" transform="translate(18,70)"/>
<path d="M0 0 C2.97 0.33 5.94 0.66 9 1 C9.33 1.99 9.66 2.98 10 4 C6.44219804 3.39009109 3.3171411 2.4216319 0 1 C0 0.67 0 0.34 0 0 Z " fill="#373B44" transform="translate(69,48)"/>
<path d="M0 0 C1.125 3.75 1.125 3.75 0 6 C0.99 6.33 1.98 6.66 3 7 C0.69 7 -1.62 7 -4 7 C-2.68 4.69 -1.36 2.38 0 0 Z " fill="#937F76" transform="translate(32,44)"/>
<path d="M0 0 C0.66 0 1.32 0 2 0 C2 0.66 2 1.32 2 2 C2.66 2 3.32 2 4 2 C4 4.31 4 6.62 4 9 C2 6 2 6 2 3 C0.68 2.67 -0.64 2.34 -2 2 C-1.34 1.34 -0.68 0.68 0 0 Z " fill="#D2A789" transform="translate(96,37)"/>
<path d="M0 0 C0.66 0 1.32 0 2 0 C3.625 3.25 3.625 3.25 5 7 C4.1875 9.4375 4.1875 9.4375 3 11 C2.49384702 9.73160474 1.99530901 8.46016898 1.5 7.1875 C1.2215625 6.47980469 0.943125 5.77210937 0.65625 5.04296875 C0 3 0 3 0 0 Z " fill="#DFBDA3" transform="translate(88,24)"/>
<path d="M0 0 C1.98 0.495 1.98 0.495 4 1 C4 1.99 4 2.98 4 4 C2.35 4.33 0.7 4.66 -1 5 C-0.67 3.35 -0.34 1.7 0 0 Z " fill="#BF7F65" transform="translate(30,160)"/>
<path d="M0 0 C0.66 0 1.32 0 2 0 C2 0.66 2 1.32 2 2 C2.99 1.67 3.98 1.34 5 1 C5.33 1.99 5.66 2.98 6 4 C4 5 4 5 0.875 4.0625 C-0.07375 3.711875 -1.0225 3.36125 -2 3 C-1.34 2.67 -0.68 2.34 0 2 C0 1.34 0 0.68 0 0 Z " fill="#B56B48" transform="translate(16,120)"/>
<path d="M0 0 C0.99 0.33 1.98 0.66 3 1 C2.34 2.32 1.68 3.64 1 5 C-0.32 5 -1.64 5 -3 5 C-2.625 3.0625 -2.625 3.0625 -2 1 C-1.34 0.67 -0.68 0.34 0 0 Z " fill="#69646B" transform="translate(33,104)"/>
<path d="M0 0 C0.99 0.66 1.98 1.32 3 2 C2.67 2.99 2.34 3.98 2 5 C-0.0625 5.6875 -0.0625 5.6875 -2 6 C-1.125 1.125 -1.125 1.125 0 0 Z " fill="#F4E4DB" transform="translate(59,44)"/>
<path d="M0 0 C0.33 0 0.66 0 1 0 C0.67 2.97 0.34 5.94 0 9 C-0.99 9 -1.98 9 -3 9 C-3 8.01 -3 7.02 -3 6 C-2.34 6 -1.68 6 -1 6 C-1.0309375 4.7934375 -1.0309375 4.7934375 -1.0625 3.5625 C-1 1 -1 1 0 0 Z " fill="#915D45" transform="translate(17,31)"/>
<path d="M0 0 C0.33 1.32 0.66 2.64 1 4 C0.360625 4.28875 -0.27875 4.5775 -0.9375 4.875 C-3.15206079 5.82823451 -3.15206079 5.82823451 -4 8 C-4.99 7.67 -5.98 7.34 -7 7 C-4.69 4.69 -2.38 2.38 0 0 Z " fill="#B98665" transform="translate(15,33)"/>
<path d="M0 0 C1.32 0.33 2.64 0.66 4 1 C4.66 3.31 5.32 5.62 6 8 C5.34 8 4.68 8 4 8 C2.5393715 5.35261084 2 4.10551666 2 1 C1.34 0.67 0.68 0.34 0 0 Z " fill="#BD8D70" transform="translate(83,21)"/>
<path d="M0 0 C2 3 2 3 2 7 C1.34 7 0.68 7 0 7 C-0.33 7.66 -0.66 8.32 -1 9 C-2.0326802 6.21176345 -2.04509293 5.1322726 -1.0625 2.25 C-0.711875 1.5075 -0.36125 0.765 0 0 Z " fill="#DA8E58" transform="translate(94,115)"/>
<path d="M0 0 C1.98 0.99 1.98 0.99 4 2 C3.67 3.65 3.34 5.3 3 7 C2.34 7 1.68 7 1 7 C0.67 4.69 0.34 2.38 0 0 Z " fill="#BEBCBD" transform="translate(37,93)"/>
<path d="M0 0 C0 2.31 0 4.62 0 7 C-0.66 5.68 -1.32 4.36 -2 3 C-3.65 3 -5.3 3 -7 3 C-4.49955934 -0.00052879 -4.2621484 0 0 0 Z " fill="#B77760" transform="translate(61,93)"/>
<path d="M0 0 C0 0.66 0 1.32 0 2 C0.66 2 1.32 2 2 2 C2 2.66 2 3.32 2 4 C-0.31 3.67 -2.62 3.34 -5 3 C-5 2.34 -5 1.68 -5 1 C-2 0 -2 0 0 0 Z " fill="#CB9881" transform="translate(54,69)"/>
<path d="M0 0 C1.32 1.32 2.64 2.64 4 4 C2.68 4.99 1.36 5.98 0 7 C-1.04449911 3.86650268 -0.93423645 3.01031744 0 0 Z " fill="#6A382E" transform="translate(28,61)"/>
<path d="M0 0 C6.75 -0.125 6.75 -0.125 9 1 C9 1.66 9 2.32 9 3 C7.88625 2.814375 6.7725 2.62875 5.625 2.4375 C2.17431139 1.68319343 2.17431139 1.68319343 0 3 C0 2.01 0 1.02 0 0 Z " fill="#AF5852" transform="translate(9,55)"/>
<path d="M0 0 C1.65 0 3.3 0 5 0 C5 0.33 5 0.66 5 1 C6.65 1.33 8.3 1.66 10 2 C10 2.33 10 2.66 10 3 C5.545 3.495 5.545 3.495 1 4 C0.67 2.68 0.34 1.36 0 0 Z " fill="#6D3328" transform="translate(5,49)"/>
<path d="M0 0 C4.455 0.99 4.455 0.99 9 2 C9 2.66 9 3.32 9 4 C4.545 3.01 4.545 3.01 0 2 C0 1.34 0 0.68 0 0 Z " fill="#945D47" transform="translate(2,44)"/>
<path d="M0 0 C2.31 0.66 4.62 1.32 7 2 C7 2.99 7 3.98 7 5 C2.25 3.125 2.25 3.125 0 2 C0 1.34 0 0.68 0 0 Z " fill="#ECAF7A" transform="translate(24,35)"/>
<path d="M0 0 C3.96 0.33 7.92 0.66 12 1 C12 1.33 12 1.66 12 2 C10.56589632 2.24954005 9.12739928 2.47392642 7.6875 2.6875 C6.88699219 2.81511719 6.08648437 2.94273437 5.26171875 3.07421875 C3 3 3 3 0 0 Z " fill="#22212C" transform="translate(42,134)"/>
<path d="M0 0 C0.66 0 1.32 0 2 0 C2 2.64 2 5.28 2 8 C1.01 7.67 0.02 7.34 -1 7 C-0.67 4.69 -0.34 2.38 0 0 Z " fill="#BFC2C9" transform="translate(32,86)"/>
<path d="M0 0 C-3.8503105 2.56687367 -5.58569763 1.83288724 -10 1 C-10 0.67 -10 0.34 -10 0 C-6.33694766 -0.74926071 -3.57644848 -1.2380014 0 0 Z " fill="#6A3335" transform="translate(61,79)"/>
<path d="M0 0 C-1.1875 1.5 -1.1875 1.5 -3 3 C-5.6875 3.1875 -5.6875 3.1875 -8 3 C-8 2.34 -8 1.68 -8 1 C-2.25 -1.125 -2.25 -1.125 0 0 Z " fill="#A86B55" transform="translate(47,70)"/>
<path d="M0 0 C2.0625 0.4375 2.0625 0.4375 4 1 C4.33 2.32 4.66 3.64 5 5 C3.125 4.6875 3.125 4.6875 1 4 C0.34 3.01 -0.32 2.02 -1 1 C-0.67 0.67 -0.34 0.34 0 0 Z " fill="#854632" transform="translate(78,65)"/>
<path d="M0 0 C0 0.99 0 1.98 0 3 C-3.63 2.67 -7.26 2.34 -11 2 C-11 1.67 -11 1.34 -11 1 C-3.375 0 -3.375 0 0 0 Z " fill="#C6A797" transform="translate(75,44)"/>
<path d="M0 0 C2 2 2 2 2.125 4.625 C2.08375 5.40875 2.0425 6.1925 2 7 C0.68 6.67 -0.64 6.34 -2 6 C-1.33333333 4 -0.66666667 2 0 0 Z " fill="#D4C3B8" transform="translate(72,38)"/>
<path d="M0 0 C5.75 -0.125 5.75 -0.125 8 1 C7.67 1.99 7.34 2.98 7 4 C4.69 3.34 2.38 2.68 0 2 C0 1.34 0 0.68 0 0 Z " fill="#D6BFAC" transform="translate(26,34)"/>
<path d="M0 0 C2 2 2 2 2.125 5.125 C2.08375 6.07375 2.0425 7.0225 2 8 C1.34 7.01 0.68 6.02 0 5 C-0.99 5 -1.98 5 -3 5 C-2.67 4.01 -2.34 3.02 -2 2 C-1.34 2 -0.68 2 0 2 C0 1.34 0 0.68 0 0 Z " fill="#B87D5D" transform="translate(19,27)"/>
</svg>
